bug210.ufo
<glyph name="A" format="1">
	<advance width="603"/>
	<outline>
		<contour>
			<point x="115" y="0" type="line"/>
			<point x="249" y="470" type="line"/>
			<point x="265" y="529"/>
			<point x="282" y="590"/>
			<point x="298" y="659" type="curve"/>
			<point x="304" y="659" type="line"/>
			<point x="320" y="590"/>
			<point x="337" y="531"/>
			<point x="354" y="469" type="curve"/>
			<point x="488" y="0" type="line"/>
			<point x="588" y="0" type="line"/>
			<point x="362" y="719" type="line"/>
			<point x="240" y="719" type="line"/>
			<point x="15" y="0" type="line"/>
		</contour>
		<contour>
			<point x="447" y="216" type="line"/>
			<point x="428" y="282" type="line"/>
			<point x="175" y="282" type="line"/>
			<point x="155" y="216" type="line"/>
		</contour>
	</outline>
</glyph>
<glyph name="A.sc" format="1">
	<advance width="521"/>
	<outline>
		<contour>
			<point x="361" y="165" type="line"/>
			<point x="409" y="0" type="line"/>
			<point x="506" y="0" type="line"/>
			<point x="320" y="575" type="line"/>
			<point x="200" y="575" type="line"/>
			<point x="15" y="0" type="line"/>
			<point x="112" y="0" type="line"/>
			<point x="159" y="165" type="line"/>
		</contour>
		<contour>
			<point x="343" y="228" type="line"/>
			<point x="178" y="228" type="line"/>
			<point x="219" y="373" type="line"/>
			<point x="232" y="419"/>
			<point x="245" y="466"/>
			<point x="257" y="520" type="curve"/>
			<point x="263" y="520" type="line"/>
			<point x="275" y="466"/>
			<point x="289" y="421"/>
			<point x="302" y="373" type="curve"/>
		</contour>
	</outline>
</glyph>
<glyph name="Aacute" format="1">
	<advance width="603"/>
	<outline>
		<contour>
			<point x="426" y="216" type="line"/>
			<point x="488" y="0" type="line"/>
			<point x="588" y="0" type="line"/>
			<point x="362" y="719" type="line"/>
			<point x="240" y="719" type="line"/>
			<point x="15" y="0" type="line"/>
			<point x="115" y="0" type="line"/>
			<point x="176" y="216" type="line"/>
		</contour>
		<contour>
			<point x="406" y="282" type="line"/>
			<point x="196" y="282" type="line"/>
			<point x="249" y="470" type="line"/>
			<point x="265" y="529"/>
			<point x="282" y="590"/>
			<point x="298" y="659" type="curve"/>
			<point x="304" y="659" type="line"/>
			<point x="320" y="590"/>
			<point x="337" y="531"/>
			<point x="354" y="469" type="curve"/>
		</contour>
		<contour>
			<point x="460" y="846" type="line"/>
			<point x="342" y="846" type="line"/>
			<point x="235" y="747" type="line"/>
			<point x="304" y="747" type="line"/>
		</contour>
	</outline>
</glyph>
<glyph name="Adieresis" format="1">
	<advance width="603"/>
	<outline>
		<contour>
			<point x="426" y="216" type="line"/>
			<point x="488" y="0" type="line"/>
			<point x="588" y="0" type="line"/>
			<point x="362" y="719" type="line"/>
			<point x="240" y="719" type="line"/>
			<point x="15" y="0" type="line"/>
			<point x="115" y="0" type="line"/>
			<point x="176" y="216" type="line"/>
		</contour>
		<contour>
			<point x="406" y="282" type="line"/>
			<point x="196" y="282" type="line"/>
			<point x="249" y="470" type="line"/>
			<point x="265" y="529"/>
			<point x="282" y="590"/>
			<point x="298" y="659" type="curve"/>
			<point x="304" y="659" type="line"/>
			<point x="320" y="590"/>
			<point x="337" y="531"/>
			<point x="354" y="469" type="curve"/>
		</contour>
		<contour>
			<point x="170" y="844" type="line"/>
			<point x="170" y="755" type="line"/>
			<point x="236" y="755" type="line"/>
			<point x="236" y="844" type="line"/>
		</contour>
		<contour>
			<point x="368" y="844" type="line"/>
			<point x="368" y="755" type="line"/>
			<point x="434" y="755" type="line"/>
			<point x="434" y="844" type="line"/>
		</contour>
	</outline>
</glyph>
<glyph name="Atilde" format="1">
	<advance width="603"/>
	<outline>
		<contour>
			<point x="426" y="216" type="line"/>
			<point x="488" y="0" type="line"/>
			<point x="588" y="0" type="line"/>
			<point x="362" y="719" type="line"/>
			<point x="240" y="719" type="line"/>
			<point x="15" y="0" type="line"/>
			<point x="115" y="0" type="line"/>
			<point x="176" y="216" type="line"/>
		</contour>
		<contour>
			<point x="406" y="282" type="line"/>
			<point x="196" y="282" type="line"/>
			<point x="249" y="470" type="line"/>
			<point x="265" y="529"/>
			<point x="282" y="590"/>
			<point x="298" y="659" type="curve"/>
			<point x="304" y="659" type="line"/>
			<point x="320" y="590"/>
			<point x="337" y="531"/>
			<point x="354" y="469" type="curve"/>
		</contour>
		<contour>
			<point x="416" y="851" type="line"/>
			<point x="403" y="828"/>
			<point x="384" y="819"/>
			<point x="363" y="819" type="curve"/>
			<point x="344" y="819"/>
			<point x="327" y="824"/>
			<point x="316" y="829" type="curve"/>
			<point x="297" y="838" type="line"/>
			<point x="278" y="846"/>
			<point x="258" y="850"/>
			<point x="240" y="850" type="curve"/>
			<point x="200" y="850"/>
			<point x="172" y="828"/>
			<point x="152" y="792" type="curve"/>
			<point x="189" y="766" type="line"/>
			<point x="202" y="789"/>
			<point x="220" y="798"/>
			<point x="242" y="798" type="curve"/>
			<point x="260" y="798"/>
			<point x="277" y="793"/>
			<point x="289" y="788" type="curve"/>
			<point x="307" y="779" type="line"/>
			<point x="327" y="770"/>
			<point x="347" y="767"/>
			<point x="365" y="767" type="curve"/>
			<point x="405" y="767"/>
			<point x="433" y="789"/>
			<point x="453" y="825" type="curve"/>
		</contour>
	</outline>
</glyph>
<glyph name="B" format="1">
	<advance width="640"/>
	<outline>
		<contour>
			<point x="401" y="383" type="line"/>
			<point x="510" y="393"/>
			<point x="560" y="448"/>
			<point x="560" y="544" type="curve"/>
			<point x="560" y="666"/>
			<point x="479" y="719"/>
			<point x="283" y="719" type="curve"/>
			<point x="84" y="719" type="line"/>
			<point x="84" y="0" type="line"/>
			<point x="303" y="0" type="line"/>
			<point x="461" y="0"/>
			<point x="596" y="40"/>
			<point x="596" y="197" type="curve"/>
			<point x="596" y="306"/>
			<point x="533" y="369"/>
			<point x="401" y="380" type="curve"/>
		</contour>
		<contour>
			<point x="177" y="654" type="line"/>
			<point x="289" y="654" type="line"/>
			<point x="413" y="654"/>
			<point x="466" y="613"/>
			<point x="466" y="534" type="curve"/>
			<point x="466" y="460"/>
			<point x="428" y="409"/>
			<point x="291" y="409" type="curve"/>
			<point x="177" y="409" type="line"/>
		</contour>
		<contour>
			<point x="177" y="343" type="line"/>
			<point x="296" y="343" type="line"/>
			<point x="434" y="343"/>
			<point x="501" y="291"/>
			<point x="501" y="203" type="curve"/>
			<point x="501" y="93"/>
			<point x="405" y="66"/>
			<point x="289" y="66" type="curve"/>
			<point x="177" y="66" type="line"/>
		</contour>
	</outline>
</glyph>
<glyph name="B.sc" format="1">
	<advance width="567"/>
	<outline>
		<contour>
			<point x="364" y="307" type="line"/>
			<point x="452" y="314"/>
			<point x="493" y="358"/>
			<point x="493" y="435" type="curve"/>
			<point x="493" y="534"/>
			<point x="425" y="575"/>
			<point x="261" y="575" type="curve"/>
			<point x="84" y="575" type="line"/>
			<point x="84" y="0" type="line"/>
			<point x="282" y="0" type="line"/>
			<point x="414" y="0"/>
			<point x="523" y="33"/>
			<point x="523" y="158" type="curve"/>
			<point x="523" y="243"/>
			<point x="473" y="295"/>
			<point x="364" y="304" type="curve"/>
		</contour>
		<contour>
			<point x="175" y="513" type="line"/>
			<point x="267" y="513" type="line"/>
			<point x="361" y="513"/>
			<point x="402" y="483"/>
			<point x="402" y="424" type="curve"/>
			<point x="402" y="368"/>
			<point x="371" y="331"/>
			<point x="268" y="331" type="curve"/>
			<point x="175" y="331" type="line"/>
		</contour>
		<contour>
			<point x="175" y="269" type="line"/>
			<point x="273" y="269" type="line"/>
			<point x="378" y="269"/>
			<point x="431" y="230"/>
			<point x="431" y="164" type="curve"/>
			<point x="431" y="83"/>
			<point x="359" y="63"/>
			<point x="267" y="63" type="curve"/>
			<point x="175" y="63" type="line"/>
		</contour>
	</outline>
</glyph>
<glyph name="C" format="1">
	<advance width="675"/>
	<outline>
		<contour>
			<point x="536" y="203" type="line"/>
			<point x="516" y="136"/>
			<point x="458" y="50"/>
			<point x="358" y="50" type="curve"/>
			<point x="248" y="50"/>
			<point x="144" y="128"/>
			<point x="144" y="359" type="curve"/>
			<point x="144" y="588"/>
			<point x="248" y="669"/>
			<point x="361" y="669" type="curve"/>
			<point x="450" y="669"/>
			<point x="499" y="613"/>
			<point x="525" y="532" type="curve"/>
			<point x="619" y="544" type="line"/>
			<point x="584" y="665"/>
			<point x="491" y="734"/>
			<point x="361" y="734" type="curve"/>
			<point x="273" y="734"/>
			<point x="197" y="702"/>
			<point x="141" y="643" type="curve"/>
			<point x="83" y="579"/>
			<point x="49" y="484"/>
			<point x="49" y="362" type="curve"/>
			<point x="49" y="226"/>
			<point x="85" y="133"/>
			<point x="143" y="72" type="curve"/>
			<point x="195" y="15"/>
			<point x="274" y="-14"/>
			<point x="359" y="-14" type="curve"/>
			<point x="492" y="-14"/>
			<point x="593" y="77"/>
			<point x="631" y="187" type="curve"/>
		</contour>
	</outline>
</glyph>
<glyph name="C.sc" format="1">
	<advance width="588"/>
	<outline>
		<contour>
			<point x="452" y="171" type="line"/>
			<point x="436" y="117"/>
			<point x="390" y="51"/>
			<point x="310" y="51" type="curve"/>
			<point x="222" y="51"/>
			<point x="141" y="113"/>
			<point x="141" y="287" type="curve"/>
			<point x="141" y="460"/>
			<point x="220" y="525"/>
			<point x="311" y="525" type="curve"/>
			<point x="384" y="525"/>
			<point x="423" y="481"/>
			<point x="443" y="416" type="curve"/>
			<point x="535" y="427" type="line"/>
			<point x="506" y="530"/>
			<point x="424" y="587"/>
			<point x="312" y="587" type="curve"/>
			<point x="239" y="587"/>
			<point x="175" y="563"/>
			<point x="128" y="516" type="curve"/>
			<point x="78" y="465"/>
			<point x="49" y="389"/>
			<point x="49" y="290" type="curve"/>
			<point x="49" y="179"/>
			<point x="80" y="105"/>
			<point x="129" y="57" type="curve"/>
			<point x="174" y="11"/>
			<point x="241" y="-11"/>
			<point x="311" y="-11" type="curve"/>
			<point x="422" y="-11"/>
			<point x="512" y="61"/>
			<point x="544" y="157" type="curve"/>
		</contour>
	</outline>
</glyph>
<glyph name="E" format="1">
	<advance width="559"/>
	<outline>
		<contour>
			<point x="177" y="407" type="line"/>
			<point x="177" y="654" type="line"/>
			<point x="494" y="654" type="line"/>
			<point x="494" y="719" type="line"/>
			<point x="84" y="719" type="line"/>
			<point x="84" y="0" type="line"/>
			<point x="504" y="0" type="line"/>
			<point x="504" y="66" type="line"/>
			<point x="177" y="66" type="line"/>
			<point x="177" y="341" type="line"/>
			<point x="423" y="341" type="line"/>
			<point x="423" y="407" type="line"/>
		</contour>
	</outline>
</glyph>
<glyph name="Ecircumflex" format="1">
	<advance width="559"/>
	<outline>
		<contour>
			<point x="177" y="407" type="line"/>
			<point x="177" y="654" type="line"/>
			<point x="494" y="654" type="line"/>
			<point x="494" y="719" type="line"/>
			<point x="84" y="719" type="line"/>
			<point x="84" y="0" type="line"/>
			<point x="504" y="0" type="line"/>
			<point x="504" y="66" type="line"/>
			<point x="177" y="66" type="line"/>
			<point x="177" y="341" type="line"/>
			<point x="423" y="341" type="line"/>
			<point x="423" y="407" type="line"/>
		</contour>
		<contour>
			<point x="281" y="805" type="line"/>
			<point x="358" y="757" type="line"/>
			<point x="439" y="757" type="line"/>
			<point x="312" y="845" type="line"/>
			<point x="247" y="845" type="line"/>
			<point x="121" y="757" type="line"/>
			<point x="202" y="757" type="line"/>
			<point x="279" y="805" type="line"/>
		</contour>
	</outline>
</glyph>
<glyph name="Edieresis" format="1">
	<advance width="559"/>
	<outline>
		<contour>
			<point x="177" y="407" type="line"/>
			<point x="177" y="654" type="line"/>
			<point x="494" y="654" type="line"/>
			<point x="494" y="719" type="line"/>
			<point x="84" y="719" type="line"/>
			<point x="84" y="0" type="line"/>
			<point x="504" y="0" type="line"/>
			<point x="504" y="66" type="line"/>
			<point x="177" y="66" type="line"/>
			<point x="177" y="341" type="line"/>
			<point x="423" y="341" type="line"/>
			<point x="423" y="407" type="line"/>
		</contour>
		<contour>
			<point x="159" y="852" type="line"/>
			<point x="159" y="763" type="line"/>
			<point x="225" y="763" type="line"/>
			<point x="225" y="852" type="line"/>
		</contour>
		<contour>
			<point x="357" y="852" type="line"/>
			<point x="357" y="763" type="line"/>
			<point x="423" y="763" type="line"/>
			<point x="423" y="852" type="line"/>
		</contour>
	</outline>
</glyph>
<glyph name="F" format="1">
	<advance width="540"/>
	<outline>
		<contour>
			<point x="177" y="0" type="line"/>
			<point x="177" y="339" type="line"/>
			<point x="422" y="339" type="line"/>
			<point x="422" y="404" type="line"/>
			<point x="177" y="404" type="line"/>
			<point x="177" y="654" type="line"/>
			<point x="488" y="654" type="line"/>
			<point x="488" y="719" type="line"/>
			<point x="84" y="719" type="line"/>
			<point x="84" y="0" type="line"/>
		</contour>
	</outline>
</glyph>
<glyph name="G.sc" format="1">
	<advance width="592"/>
	<outline>
		<contour>
			<point x="530" y="282" type="line"/>
			<point x="326" y="282" type="line"/>
			<point x="326" y="219" type="line"/>
			<point x="443" y="219" type="line"/>
			<point x="443" y="83" type="line"/>
			<point x="414" y="65"/>
			<point x="367" y="51"/>
			<point x="314" y="51" type="curve"/>
			<point x="212" y="51"/>
			<point x="141" y="132"/>
			<point x="141" y="288" type="curve"/>
			<point x="141" y="459"/>
			<point x="234" y="525"/>
			<point x="314" y="525" type="curve"/>
			<point x="372" y="525"/>
			<point x="404" y="498"/>
			<point x="434" y="434" type="curve"/>
			<point x="526" y="452" type="line"/>
			<point x="480" y="538"/>
			<point x="406" y="587"/>
			<point x="312" y="587" type="curve"/>
			<point x="166" y="587"/>
			<point x="49" y="502"/>
			<point x="49" y="289" type="curve"/>
			<point x="49" y="98"/>
			<point x="140" y="-11"/>
			<point x="310" y="-11" type="curve"/>
			<point x="408" y="-11"/>
			<point x="485" y="26"/>
			<point x="530" y="63" type="curve"/>
		</contour>
	</outline>
</glyph>
<glyph name="H.sc" format="1">
	<advance width="626"/>
	<outline>
		<contour>
			<point x="541" y="575" type="line"/>
			<point x="451" y="575" type="line"/>
			<point x="451" y="330" type="line"/>
			<point x="175" y="330" type="line"/>
			<point x="175" y="575" type="line"/>
			<point x="84" y="575" type="line"/>
			<point x="84" y="0" type="line"/>
			<point x="175" y="0" type="line"/>
			<point x="175" y="268" type="line"/>
			<point x="451" y="268" type="line"/>
			<point x="451" y="0" type="line"/>
			<point x="541" y="0" type="line"/>
		</contour>
	</outline>
</glyph>
<glyph name="I" format="1">
	<advance width="273"/>
	<outline>
		<contour>
			<point x="183" y="0" type="line"/>
			<point x="183" y="719" type="line"/>
			<point x="90" y="719" type="line"/>
			<point x="90" y="0" type="line"/>
		</contour>
	</outline>
</glyph>
<glyph name="Icircumflex" format="1">
	<advance width="273"/>
	<outline>
		<contour>
			<point x="183" y="0" type="line"/>
			<point x="183" y="719" type="line"/>
			<point x="90" y="719" type="line"/>
			<point x="90" y="0" type="line"/>
		</contour>
		<contour>
			<point x="138" y="805" type="line"/>
			<point x="215" y="757" type="line"/>
			<point x="296" y="757" type="line"/>
			<point x="169" y="845" type="line"/>
			<point x="104" y="845" type="line"/>
			<point x="-23" y="757" type="line"/>
			<point x="58" y="757" type="line"/>
			<point x="135" y="805" type="line"/>
		</contour>
	</outline>
</glyph>
<glyph name="Idieresis" format="1">
	<advance width="273"/>
	<outline>
		<contour>
			<point x="183" y="0" type="line"/>
			<point x="183" y="719" type="line"/>
			<point x="90" y="719" type="line"/>
			<point x="90" y="0" type="line"/>
		</contour>
		<contour>
			<point x="4" y="844" type="line"/>
			<point x="4" y="755" type="line"/>
			<point x="71" y="755" type="line"/>
			<point x="71" y="844" type="line"/>
		</contour>
		<contour>
			<point x="202" y="844" type="line"/>
			<point x="202" y="755" type="line"/>
			<point x="269" y="755" type="line"/>
			<point x="269" y="844" type="line"/>
		</contour>
	</outline>
</glyph>
<glyph name="Igrave" format="1">
	<advance width="273"/>
	<outline>
		<contour>
			<point x="183" y="0" type="line"/>
			<point x="183" y="719" type="line"/>
			<point x="90" y="719" type="line"/>
			<point x="90" y="0" type="line"/>
		</contour>
		<contour>
			<point x="-17" y="846" type="line"/>
			<point x="139" y="747" type="line"/>
			<point x="208" y="747" type="line"/>
			<point x="101" y="846" type="line"/>
		</contour>
	</outline>
</glyph>
<glyph name="J.sc" format="1">
	<advance width="382"/>
	<outline>
		<contour>
			<point x="13" y="26" type="line"/>
			<point x="47" y="3"/>
			<point x="83" y="-11"/>
			<point x="136" y="-11" type="curve"/>
			<point x="241" y="-11"/>
			<point x="300" y="57"/>
			<point x="300" y="200" type="curve"/>
			<point x="300" y="575" type="line"/>
			<point x="210" y="575" type="line"/>
			<point x="210" y="198" type="line"/>
			<point x="210" y="91"/>
			<point x="173" y="51"/>
			<point x="119" y="51" type="curve"/>
			<point x="82" y="51"/>
			<point x="54" y="68"/>
			<point x="31" y="90" type="curve"/>
		</contour>
	</outline>
</glyph>
<glyph name="K.sc" format="1">
	<advance width="525"/>
	<outline>
		<contour>
			<point x="174" y="284" type="line"/>
			<point x="175" y="332"/>
			<point x="175" y="373"/>
			<point x="175" y="426" type="curve"/>
			<point x="175" y="575" type="line"/>
			<point x="84" y="575" type="line"/>
			<point x="84" y="0" type="line"/>
			<point x="175" y="0" type="line"/>
			<point x="175" y="177" type="line"/>
			<point x="246" y="267" type="line"/>
			<point x="401" y="0" type="line"/>
			<point x="507" y="0" type="line"/>
			<point x="301" y="334" type="line"/>
			<point x="477" y="575" type="line"/>
			<point x="373" y="575" type="line"/>
			<point x="270" y="425" type="line"/>
			<point x="237" y="372"/>
			<point x="207" y="333"/>
			<point x="176" y="284" type="curve"/>
		</contour>
	</outline>
</glyph>
<glyph name="M" format="1">
	<advance width="964"/>
	<outline>
		<contour>
			<point x="481" y="98" type="line"/>
			<point x="438" y="217"/>
			<point x="356" y="412"/>
			<point x="229" y="719" type="curve"/>
			<point x="84" y="719" type="line"/>
			<point x="84" y="0" type="line"/>
			<point x="171" y="0" type="line"/>
			<point x="171" y="319"/>
			<point x="171" y="534"/>
			<point x="168" y="649" type="curve"/>
			<point x="171" y="649" type="line"/>
			<point x="217" y="534"/>
			<point x="306" y="319"/>
			<point x="438" y="0" type="curve"/>
			<point x="525" y="0" type="line"/>
			<point x="662" y="325"/>
			<point x="748" y="534"/>
			<point x="793" y="649" type="curve"/>
			<point x="797" y="649" type="line"/>
			<point x="794" y="534"/>
			<point x="794" y="319"/>
			<point x="794" y="0" type="curve"/>
			<point x="881" y="0" type="line"/>
			<point x="881" y="719" type="line"/>
			<point x="736" y="719" type="line"/>
			<point x="609" y="413"/>
			<point x="528" y="217"/>
			<point x="484" y="98" type="curve"/>
		</contour>
	</outline>
</glyph>
<glyph name="M.sc" format="1">
	<advance width="841"/>
	<outline>
		<contour>
			<point x="420" y="96" type="line"/>
			<point x="385" y="191"/>
			<point x="324" y="338"/>
			<point x="225" y="575" type="curve"/>
			<point x="84" y="575" type="line"/>
			<point x="84" y="0" type="line"/>
			<point x="168" y="0" type="line"/>
			<point x="168" y="250"/>
			<point x="168" y="418"/>
			<point x="166" y="509" type="curve"/>
			<point x="169" y="509" type="line"/>
			<point x="205" y="418"/>
			<point x="275" y="249"/>
			<point x="379" y="0" type="curve"/>
			<point x="462" y="0" type="line"/>
			<point x="570" y="255"/>
			<point x="638" y="418"/>
			<point x="673" y="509" type="curve"/>
			<point x="676" y="509" type="line"/>
			<point x="674" y="418"/>
			<point x="674" y="250"/>
			<point x="674" y="0" type="curve"/>
			<point x="758" y="0" type="line"/>
			<point x="758" y="575" type="line"/>
			<point x="617" y="575" type="line"/>
			<point x="518" y="339"/>
			<point x="457" y="191"/>
			<point x="422" y="96" type="curve"/>
		</contour>
	</outline>
</glyph>
<glyph name="N.sc" format="1">
	<advance width="618"/>
	<outline>
		<contour>
			<point x="451" y="91" type="line"/>
			<point x="414" y="175"/>
			<point x="333" y="338"/>
			<point x="211" y="575" type="curve"/>
			<point x="84" y="575" type="line"/>
			<point x="84" y="0" type="line"/>
			<point x="168" y="0" type="line"/>
			<point x="168" y="238"/>
			<point x="167" y="401"/>
			<point x="165" y="485" type="curve"/>
			<point x="167" y="485" type="line"/>
			<point x="204" y="401"/>
			<point x="285" y="240"/>
			<point x="407" y="0" type="curve"/>
			<point x="534" y="0" type="line"/>
			<point x="534" y="575" type="line"/>
			<point x="449" y="575" type="line"/>
			<point x="449" y="338"/>
			<point x="451" y="176"/>
			<point x="454" y="91" type="curve"/>
		</contour>
	</outline>
</glyph>
<glyph name="Oslash" format="1">
	<advance width="730"/>
	<outline>
		<contour>
			<point x="143" y="70" type="line"/>
			<point x="198" y="17"/>
			<point x="273" y="-14"/>
			<point x="365" y="-14" type="curve"/>
			<point x="543" y="-15"/>
			<point x="681" y="98"/>
			<point x="681" y="360" type="curve"/>
			<point x="681" y="470"/>
			<point x="651" y="557"/>
			<point x="614" y="615" type="curve"/>
			<point x="694" y="708" type="line"/>
			<point x="665" y="738" type="line"/>
			<point x="584" y="651" type="line"/>
			<point x="533" y="699"/>
			<point x="460" y="734"/>
			<point x="365" y="734" type="curve"/>
			<point x="188" y="734"/>
			<point x="49" y="624"/>
			<point x="49" y="360" type="curve"/>
			<point x="49" y="247"/>
			<point x="78" y="163"/>
			<point x="114" y="106" type="curve"/>
			<point x="33" y="13" type="line"/>
			<point x="62" y="-16" type="line"/>
		</contour>
		<contour>
			<point x="178" y="172" type="line"/>
			<point x="155" y="224"/>
			<point x="142" y="292"/>
			<point x="143" y="370" type="curve"/>
			<point x="144" y="573"/>
			<point x="246" y="669"/>
			<point x="364" y="669" type="curve"/>
			<point x="408" y="669"/>
			<point x="439" y="661"/>
			<point x="463" y="649" type="curve"/>
			<point x="488" y="637"/>
			<point x="514" y="614"/>
			<point x="529" y="595" type="curve"/>
		</contour>
		<contour>
			<point x="549" y="550" type="line"/>
			<point x="575" y="497"/>
			<point x="587" y="427"/>
			<point x="587" y="349" type="curve"/>
			<point x="586" y="146"/>
			<point x="482" y="51"/>
			<point x="365" y="51" type="curve"/>
			<point x="321" y="51"/>
			<point x="290" y="59"/>
			<point x="265" y="70" type="curve"/>
			<point x="237" y="83"/>
			<point x="212" y="106"/>
			<point x="196" y="126" type="curve"/>
		</contour>
	</outline>
</glyph>
<glyph name="P" format="1">
	<advance width="628"/>
	<outline>
		<contour>
			<point x="177" y="0" type="line"/>
			<point x="177" y="284" type="line"/>
			<point x="292" y="284" type="line"/>
			<point x="491" y="284"/>
			<point x="589" y="348"/>
			<point x="589" y="506" type="curve"/>
			<point x="589" y="638"/>
			<point x="512" y="719"/>
			<point x="305" y="719" type="curve"/>
			<point x="84" y="719" type="line"/>
			<point x="84" y="0" type="line"/>
		</contour>
		<contour>
			<point x="177" y="350" type="line"/>
			<point x="177" y="654" type="line"/>
			<point x="301" y="654" type="line"/>
			<point x="436" y="654"/>
			<point x="494" y="602"/>
			<point x="494" y="505" type="curve"/>
			<point x="494" y="397"/>
			<point x="433" y="350"/>
			<point x="288" y="350" type="curve"/>
		</contour>
	</outline>
</glyph>
<glyph name="P.sc" format="1">
	<advance width="553"/>
	<outline>
		<contour>
			<point x="175" y="0" type="line"/>
			<point x="175" y="220" type="line"/>
			<point x="268" y="220" type="line"/>
			<point x="430" y="220"/>
			<point x="514" y="272"/>
			<point x="514" y="401" type="curve"/>
			<point x="514" y="509"/>
			<point x="450" y="575"/>
			<point x="278" y="575" type="curve"/>
			<point x="84" y="575" type="line"/>
			<point x="84" y="0" type="line"/>
		</contour>
		<contour>
			<point x="175" y="283" type="line"/>
			<point x="175" y="513" type="line"/>
			<point x="273" y="513" type="line"/>
			<point x="376" y="513"/>
			<point x="421" y="474"/>
			<point x="421" y="400" type="curve"/>
			<point x="421" y="318"/>
			<point x="374" y="283"/>
			<point x="264" y="283" type="curve"/>
		</contour>
	</outline>
</glyph>
<glyph name="Q" format="1">
	<advance width="730"/>
	<outline>
		<contour>
			<point x="564" y="48" type="line"/>
			<point x="636" y="107"/>
			<point x="681" y="209"/>
			<point x="681" y="360" type="curve"/>
			<point x="681" y="622"/>
			<point x="543" y="734"/>
			<point x="365" y="734" type="curve"/>
			<point x="187" y="734"/>
			<point x="49" y="622"/>
			<point x="49" y="360" type="curve"/>
			<point x="49" y="98"/>
			<point x="187" y="-14"/>
			<point x="365" y="-14" type="curve"/>
			<point x="413" y="-14"/>
			<point x="458" y="-4"/>
			<point x="496" y="17" type="curve"/>
			<point x="639" y="-123" type="line"/>
			<point x="690" y="-69" type="line"/>
		</contour>
		<contour>
			<point x="365" y="669" type="line"/>
			<point x="479" y="669"/>
			<point x="586" y="585"/>
			<point x="586" y="359" type="curve"/>
			<point x="586" y="135"/>
			<point x="479" y="51"/>
			<point x="365" y="51" type="curve"/>
			<point x="251" y="51"/>
			<point x="144" y="135"/>
			<point x="144" y="359" type="curve"/>
			<point x="144" y="585"/>
			<point x="251" y="669"/>
			<point x="364" y="669" type="curve"/>
		</contour>
	</outline>
</glyph>
<glyph name="Q.sc" format="1">
	<advance width="630"/>
	<outline>
		<contour>
			<point x="486" y="40" type="line"/>
			<point x="546" y="88"/>
			<point x="583" y="169"/>
			<point x="583" y="287" type="curve"/>
			<point x="583" y="496"/>
			<point x="468" y="587"/>
			<point x="316" y="587" type="curve"/>
			<point x="164" y="587"/>
			<point x="49" y="496"/>
			<point x="49" y="287" type="curve"/>
			<point x="49" y="80"/>
			<point x="164" y="-11"/>
			<point x="316" y="-11" type="curve"/>
			<point x="353" y="-11"/>
			<point x="389" y="-4"/>
			<point x="419" y="11" type="curve"/>
			<point x="540" y="-104" type="line"/>
			<point x="589" y="-52" type="line"/>
		</contour>
		<contour>
			<point x="316" y="525" type="line"/>
			<point x="405" y="525"/>
			<point x="491" y="461"/>
			<point x="491" y="287" type="curve"/>
			<point x="491" y="115"/>
			<point x="405" y="51"/>
			<point x="316" y="51" type="curve"/>
			<point x="226" y="51"/>
			<point x="141" y="115"/>
			<point x="141" y="287" type="curve"/>
			<point x="141" y="461"/>
			<point x="226" y="525"/>
			<point x="315" y="525" type="curve"/>
		</contour>
	</outline>
</glyph>
<glyph name="Scaron" format="1">
	<advance width="589"/>
	<outline>
		<contour>
			<point x="520" y="593" type="line"/>
			<point x="498" y="672"/>
			<point x="430" y="734"/>
			<point x="298" y="734" type="curve"/>
			<point x="217" y="734"/>
			<point x="158" y="713"/>
			<point x="118" y="679" type="curve"/>
			<point x="77" y="647"/>
			<point x="61" y="603"/>
			<point x="61" y="557" type="curve"/>
			<point x="61" y="493"/>
			<point x="90" y="451"/>
			<point x="121" y="424" type="curve"/>
			<point x="150" y="399"/>
			<point x="184" y="379"/>
			<point x="269" y="343" type="curve"/>
			<point x="349" y="307"/>
			<point x="379" y="293"/>
			<point x="405" y="275" type="curve"/>
			<point x="429" y="255"/>
			<point x="449" y="226"/>
			<point x="449" y="183" type="curve"/>
			<point x="449" y="151"/>
			<point x="436" y="119"/>
			<point x="413" y="97" type="curve"/>
			<point x="386" y="73"/>
			<point x="347" y="51"/>
			<point x="291" y="51" type="curve"/>
			<point x="205" y="51"/>
			<point x="158" y="96"/>
			<point x="136" y="141" type="curve"/>
			<point x="44" y="132" type="line"/>
			<point x="71" y="49"/>
			<point x="143" y="-14"/>
			<point x="289" y="-14" type="curve"/>
			<point x="381" y="-14"/>
			<point x="442" y="21"/>
			<point x="483" y="57" type="curve"/>
			<point x="525" y="95"/>
			<point x="544" y="144"/>
			<point x="544" y="195" type="curve"/>
			<point x="544" y="255"/>
			<point x="518" y="298"/>
			<point x="486" y="327" type="curve"/>
			<point x="455" y="354"/>
			<point x="416" y="372"/>
			<point x="342" y="406" type="curve"/>
			<point x="261" y="438"/>
			<point x="231" y="454"/>
			<point x="202" y="474" type="curve"/>
			<point x="172" y="494"/>
			<point x="154" y="525"/>
			<point x="154" y="563" type="curve"/>
			<point x="154" y="593"/>
			<point x="165" y="617"/>
			<point x="187" y="635" type="curve"/>
			<point x="212" y="656"/>
			<point x="252" y="669"/>
			<point x="295" y="669" type="curve"/>
			<point x="376" y="669"/>
			<point x="413" y="625"/>
			<point x="430" y="586" type="curve"/>
		</contour>
		<contour>
			<point x="296" y="794" type="line"/>
			<point x="293" y="794" type="line"/>
			<point x="217" y="842" type="line"/>
			<point x="135" y="842" type="line"/>
			<point x="262" y="754" type="line"/>
			<point x="327" y="754" type="line"/>
			<point x="454" y="842" type="line"/>
			<point x="373" y="842" type="line"/>
		</contour>
	</outline>
</glyph>
<glyph name="T.sc" format="1">
	<advance width="466"/>
	<outline>
		<contour>
			<point x="442" y="575" type="line"/>
			<point x="24" y="575" type="line"/>
			<point x="24" y="513" type="line"/>
			<point x="188" y="513" type="line"/>
			<point x="188" y="0" type="line"/>
			<point x="278" y="0" type="line"/>
			<point x="278" y="513" type="line"/>
			<point x="442" y="513" type="line"/>
		</contour>
	</outline>
</glyph>
<glyph name="Thorn" format="1">
	<advance width="628"/>
	<outline>
		<contour>
			<point x="177" y="595" type="line"/>
			<point x="177" y="719" type="line"/>
			<point x="84" y="719" type="line"/>
			<point x="84" y="0" type="line"/>
			<point x="177" y="0" type="line"/>
			<point x="177" y="160" type="line"/>
			<point x="292" y="160" type="line"/>
			<point x="491" y="160"/>
			<point x="589" y="223"/>
			<point x="589" y="381" type="curve"/>
			<point x="589" y="513"/>
			<point x="512" y="595"/>
			<point x="304" y="595" type="curve"/>
		</contour>
		<contour>
			<point x="177" y="226" type="line"/>
			<point x="177" y="529" type="line"/>
			<point x="301" y="529" type="line"/>
			<point x="436" y="529"/>
			<point x="494" y="478"/>
			<point x="494" y="380" type="curve"/>
			<point x="494" y="272"/>
			<point x="433" y="226"/>
			<point x="288" y="226" type="curve"/>
		</contour>
	</outline>
</glyph>
<glyph name="Udieresis" format="1">
	<advance width="661"/>
	<outline>
		<contour>
			<point x="582" y="719" type="line"/>
			<point x="490" y="719" type="line"/>
			<point x="490" y="255" type="line"/>
			<point x="490" y="120"/>
			<point x="458" y="51"/>
			<point x="329" y="51" type="curve"/>
			<point x="202" y="51"/>
			<point x="170" y="122"/>
			<point x="170" y="255" type="curve"/>
			<point x="170" y="719" type="line"/>
			<point x="79" y="719" type="line"/>
			<point x="79" y="260" type="line"/>
			<point x="79" y="57"/>
			<point x="154" y="-14"/>
			<point x="329" y="-14" type="curve"/>
			<point x="509" y="-14"/>
			<point x="582" y="60"/>
			<point x="582" y="259" type="curve"/>
		</contour>
		<contour>
			<point x="198" y="836" type="line"/>
			<point x="198" y="747" type="line"/>
			<point x="265" y="747" type="line"/>
			<point x="265" y="836" type="line"/>
		</contour>
		<contour>
			<point x="396" y="836" type="line"/>
			<point x="396" y="747" type="line"/>
			<point x="463" y="747" type="line"/>
			<point x="463" y="836" type="line"/>
		</contour>
	</outline>
</glyph>
<glyph name="V" format="1">
	<advance width="609"/>
	<outline>
		<contour>
			<point x="304" y="67" type="line"/>
			<point x="277" y="174"/>
			<point x="249" y="265"/>
			<point x="221" y="357" type="curve"/>
			<point x="119" y="719" type="line"/>
			<point x="20" y="719" type="line"/>
			<point x="248" y="0" type="line"/>
			<point x="364" y="0" type="line"/>
			<point x="592" y="719" type="line"/>
			<point x="493" y="719" type="line"/>
			<point x="391" y="359" type="line"/>
			<point x="363" y="266"/>
			<point x="336" y="175"/>
			<point x="309" y="67" type="curve"/>
		</contour>
	</outline>
</glyph>
<glyph name="V.sc" format="1">
	<advance width="522"/>
	<outline>
		<contour>
			<point x="261" y="63" type="line"/>
			<point x="240" y="145"/>
			<point x="219" y="212"/>
			<point x="198" y="282" type="curve"/>
			<point x="116" y="575" type="line"/>
			<point x="20" y="575" type="line"/>
			<point x="207" y="0" type="line"/>
			<point x="319" y="0" type="line"/>
			<point x="505" y="575" type="line"/>
			<point x="410" y="575" type="line"/>
			<point x="327" y="283" type="line"/>
			<point x="306" y="213"/>
			<point x="286" y="145"/>
			<point x="265" y="63" type="curve"/>
		</contour>
	</outline>
</glyph>
<glyph name="W" format="1">
	<advance width="971"/>
	<outline>
		<contour>
			<point x="488" y="639" type="line"/>
			<point x="513" y="517"/>
			<point x="536" y="415"/>
			<point x="561" y="311" type="curve"/>
			<point x="636" y="0" type="line"/>
			<point x="755" y="0" type="line"/>
			<point x="954" y="719" type="line"/>
			<point x="857" y="719" type="line"/>
			<point x="778" y="398" type="line"/>
			<point x="753" y="293"/>
			<point x="727" y="189"/>
			<point x="700" y="70" type="curve"/>
			<point x="698" y="70" type="line"/>
			<point x="673" y="189"/>
			<point x="647" y="293"/>
			<point x="621" y="398" type="curve"/>
			<point x="544" y="719" type="line"/>
			<point x="429" y="719" type="line"/>
			<point x="353" y="400" type="line"/>
			<point x="327" y="296"/>
			<point x="301" y="190"/>
			<point x="277" y="70" type="curve"/>
			<point x="274" y="70" type="line"/>
			<point x="248" y="188"/>
			<point x="222" y="294"/>
			<point x="195" y="399" type="curve"/>
			<point x="116" y="719" type="line"/>
			<point x="20" y="719" type="line"/>
			<point x="219" y="0" type="line"/>
			<point x="338" y="0" type="line"/>
			<point x="412" y="308" type="line"/>
			<point x="437" y="411"/>
			<point x="461" y="516"/>
			<point x="485" y="639" type="curve"/>
		</contour>
	</outline>
</glyph>
<glyph name="W.sc" format="1">
	<advance width="831"/>
	<outline>
		<contour>
			<point x="418" y="499" type="line"/>
			<point x="437" y="401"/>
			<point x="456" y="321"/>
			<point x="475" y="241" type="curve"/>
			<point x="533" y="0" type="line"/>
			<point x="650" y="0" type="line"/>
			<point x="814" y="575" type="line"/>
			<point x="720" y="575" type="line"/>
			<point x="658" y="325" type="line"/>
			<point x="638" y="243"/>
			<point x="617" y="162"/>
			<point x="596" y="67" type="curve"/>
			<point x="594" y="67" type="line"/>
			<point x="575" y="162"/>
			<point x="554" y="243"/>
			<point x="534" y="325" type="curve"/>
			<point x="473" y="575" type="line"/>
			<point x="361" y="575" type="line"/>
			<point x="300" y="326" type="line"/>
			<point x="281" y="246"/>
			<point x="260" y="163"/>
			<point x="240" y="67" type="curve"/>
			<point x="238" y="67" type="line"/>
			<point x="218" y="161"/>
			<point x="197" y="244"/>
			<point x="176" y="326" type="curve"/>
			<point x="113" y="575" type="line"/>
			<point x="20" y="575" type="line"/>
			<point x="184" y="0" type="line"/>
			<point x="301" y="0" type="line"/>
			<point x="359" y="238" type="line"/>
			<point x="378" y="318"/>
			<point x="396" y="400"/>
			<point x="415" y="499" type="curve"/>
		</contour>
	</outline>
</glyph>
<glyph name="X" format="1">
	<advance width="609"/>
	<outline>
		<contour>
			<point x="310" y="428" type="line"/>
			<point x="308" y="428" type="line"/>
			<point x="155" y="719" type="line"/>
			<point x="48" y="719" type="line"/>
			<point x="258" y="370" type="line"/>
			<point x="36" y="0" type="line"/>
			<point x="146" y="0" type="line"/>
			<point x="307" y="302" type="line"/>
			<point x="310" y="302" type="line"/>
			<point x="471" y="0" type="line"/>
			<point x="582" y="0" type="line"/>
			<point x="360" y="370" type="line"/>
			<point x="570" y="719" type="line"/>
			<point x="463" y="719" type="line"/>
		</contour>
	</outline>
</glyph>
<glyph name="Y" format="1">
	<advance width="566"/>
	<outline>
		<contour>
			<point x="550" y="719" type="line"/>
			<point x="448" y="719" type="line"/>
			<point x="367" y="540" type="line"/>
			<point x="340" y="478"/>
			<point x="312" y="417"/>
			<point x="286" y="348" type="curve"/>
			<point x="283" y="348" type="line"/>
			<point x="256" y="416"/>
			<point x="228" y="477"/>
			<point x="201" y="539" type="curve"/>
			<point x="120" y="719" type="line"/>
			<point x="17" y="719" type="line"/>
			<point x="237" y="283" type="line"/>
			<point x="237" y="0" type="line"/>
			<point x="331" y="0" type="line"/>
			<point x="331" y="283" type="line"/>
		</contour>
	</outline>
</glyph>
<glyph name="Y.sc" format="1">
	<advance width="487"/>
	<outline>
		<contour>
			<point x="470" y="575" type="line"/>
			<point x="371" y="575" type="line"/>
			<point x="308" y="434" type="line"/>
			<point x="287" y="386"/>
			<point x="266" y="337"/>
			<point x="245" y="281" type="curve"/>
			<point x="242" y="281" type="line"/>
			<point x="221" y="336"/>
			<point x="200" y="384"/>
			<point x="179" y="433" type="curve"/>
			<point x="117" y="575" type="line"/>
			<point x="17" y="575" type="line"/>
			<point x="198" y="221" type="line"/>
			<point x="198" y="0" type="line"/>
			<point x="289" y="0" type="line"/>
			<point x="289" y="221" type="line"/>
		</contour>
	</outline>
</glyph>
<glyph name="Z.sc" format="1">
	<advance width="471"/>
	<outline>
		<contour>
			<point x="52" y="0" type="line"/>
			<point x="424" y="0" type="line"/>
			<point x="424" y="63" type="line"/>
			<point x="162" y="63" type="line"/>
			<point x="411" y="527" type="line"/>
			<point x="411" y="575" type="line"/>
			<point x="69" y="575" type="line"/>
			<point x="69" y="513" type="line"/>
			<point x="304" y="513" type="line"/>
			<point x="52" y="47" type="line"/>
		</contour>
	</outline>
</glyph>
<glyph name="Zcaron" format="1">
	<advance width="539"/>
	<outline>
		<contour>
			<point x="52" y="0" type="line"/>
			<point x="493" y="0" type="line"/>
			<point x="493" y="66" type="line"/>
			<point x="165" y="66" type="line"/>
			<point x="478" y="668" type="line"/>
			<point x="478" y="719" type="line"/>
			<point x="74" y="719" type="line"/>
			<point x="74" y="654" type="line"/>
			<point x="368" y="654" type="line"/>
			<point x="52" y="51" type="line"/>
		</contour>
		<contour>
			<point x="271" y="794" type="line"/>
			<point x="269" y="794" type="line"/>
			<point x="192" y="842" type="line"/>
			<point x="111" y="842" type="line"/>
			<point x="238" y="754" type="line"/>
			<point x="302" y="754" type="line"/>
			<point x="429" y="842" type="line"/>
			<point x="348" y="842" type="line"/>
		</contour>
	</outline>
</glyph>
<glyph name=".notdef" format="1">
	<advance width="495"/>
	<outline>
		<contour>
			<point x="0" y="0" type="line"/>
			<point x="495" y="0" type="line"/>
			<point x="495" y="703" type="line"/>
			<point x="0" y="703" type="line"/>
		</contour>
		<contour>
			<point x="248" y="397" type="line"/>
			<point x="79" y="654" type="line"/>
			<point x="416" y="654" type="line"/>
		</contour>
		<contour>
			<point x="277" y="352" type="line"/>
			<point x="446" y="608" type="line"/>
			<point x="446" y="95" type="line"/>
		</contour>
		<contour>
			<point x="79" y="51" type="line"/>
			<point x="248" y="306" type="line"/>
			<point x="416" y="51" type="line"/>
		</contour>
		<contour>
			<point x="50" y="608" type="line"/>
			<point x="218" y="352" type="line"/>
			<point x="50" y="95" type="line"/>
		</contour>
	</outline>
</glyph>
<glyph name="acute" format="1">
	<advance width="406"/>
	<outline>
		<contour>
			<point x="370" y="693" type="line"/>
			<point x="267" y="693" type="line"/>
			<point x="169" y="587" type="line"/>
			<point x="231" y="587" type="line"/>
		</contour>
	</outline>
</glyph>
<glyph name="acutebelowcmb" format="1">
	<outline>
		<contour>
			<point x="166" y="-128" type="line"/>
			<point x="63" y="-128" type="line"/>
			<point x="-35" y="-234" type="line"/>
			<point x="27" y="-234" type="line"/>
		</contour>
	</outline>
</glyph>
<glyph name="acutecmb" format="1">
	<outline>
		<contour>
			<point x="166" y="693" type="line"/>
			<point x="63" y="693" type="line"/>
			<point x="-35" y="587" type="line"/>
			<point x="27" y="587" type="line"/>
		</contour>
	</outline>
</glyph>
<glyph name="ae" format="1">
	<advance width="901"/>
	<outline>
		<contour>
			<point x="863" y="255" type="line"/>
			<point x="863" y="349"/>
			<point x="840" y="429"/>
			<point x="792" y="483" type="curve"/>
			<point x="749" y="529"/>
			<point x="693" y="552"/>
			<point x="627" y="552" type="curve"/>
			<point x="535" y="552"/>
			<point x="468" y="510"/>
			<point x="441" y="434" type="curve"/>
			<point x="439" y="434" type="line"/>
			<point x="425" y="503"/>
			<point x="392" y="552"/>
			<point x="277" y="552" type="curve"/>
			<point x="139" y="552"/>
			<point x="85" y="481"/>
			<point x="68" y="408" type="curve"/>
			<point x="158" y="398" type="line"/>
			<point x="167" y="449"/>
			<point x="201" y="499"/>
			<point x="274" y="499" type="curve"/>
			<point x="358" y="499"/>
			<point x="386" y="459"/>
			<point x="386" y="368" type="curve"/>
			<point x="386" y="348" type="line"/>
			<point x="132" y="318"/>
			<point x="43" y="252"/>
			<point x="43" y="135" type="curve"/>
			<point x="43" y="44"/>
			<point x="94" y="-12"/>
			<point x="230" y="-12" type="curve"/>
			<point x="323" y="-12"/>
			<point x="390" y="15"/>
			<point x="443" y="71" type="curve"/>
			<point x="446" y="71" type="line"/>
			<point x="497" y="8"/>
			<point x="570" y="-12"/>
			<point x="628" y="-12" type="curve"/>
			<point x="701" y="-12"/>
			<point x="751" y="7"/>
			<point x="788" y="34" type="curve"/>
			<point x="825" y="62"/>
			<point x="848" y="96"/>
			<point x="862" y="128" type="curve"/>
			<point x="770" y="136" type="line"/>
			<point x="740" y="73"/>
			<point x="694" y="41"/>
			<point x="628" y="41" type="curve"/>
			<point x="555" y="41"/>
			<point x="478" y="88"/>
			<point x="472" y="255" type="curve"/>
		</contour>
		<contour>
			<point x="472" y="304" type="line"/>
			<point x="479" y="437"/>
			<point x="539" y="499"/>
			<point x="626" y="499" type="curve"/>
			<point x="703" y="499"/>
			<point x="762" y="425"/>
			<point x="772" y="304" type="curve"/>
		</contour>
		<contour>
			<point x="386" y="257" type="line"/>
			<point x="386" y="203"/>
			<point x="395" y="157"/>
			<point x="406" y="124" type="curve"/>
			<point x="366" y="85"/>
			<point x="309" y="43"/>
			<point x="245" y="43" type="curve"/>
			<point x="160" y="43"/>
			<point x="133" y="86"/>
			<point x="133" y="143" type="curve"/>
			<point x="133" y="226"/>
			<point x="208" y="276"/>
			<point x="386" y="300" type="curve"/>
		</contour>
	</outline>
</glyph>
<glyph name="ampersand" format="1">
	<advance width="687"/>
	<outline>
		<contour>
			<point x="648" y="0" type="line"/>
			<point x="614" y="28"/>
			<point x="579" y="65"/>
			<point x="535" y="112" type="curve"/>
			<point x="580" y="176"/>
			<point x="617" y="255"/>
			<point x="622" y="357" type="curve"/>
			<point x="550" y="357" type="line"/>
			<point x="544" y="279"/>
			<point x="518" y="211"/>
			<point x="488" y="164" type="curve"/>
			<point x="429" y="222"/>
			<point x="372" y="304"/>
			<point x="324" y="372" type="curve"/>
			<point x="412" y="426"/>
			<point x="465" y="479"/>
			<point x="465" y="557" type="curve"/>
			<point x="465" y="642"/>
			<point x="398" y="684"/>
			<point x="306" y="684" type="curve"/>
			<point x="202" y="684"/>
			<point x="149" y="630"/>
			<point x="149" y="549" type="curve"/>
			<point x="149" y="485"/>
			<point x="181" y="427"/>
			<point x="215" y="378" type="curve"/>
			<point x="123" y="324"/>
			<point x="63" y="262"/>
			<point x="63" y="166" type="curve"/>
			<point x="63" y="51"/>
			<point x="135" y="-14"/>
			<point x="267" y="-14" type="curve"/>
			<point x="366" y="-14"/>
			<point x="432" y="24"/>
			<point x="467" y="61" type="curve"/>
			<point x="470" y="61" type="line"/>
			<point x="497" y="35"/>
			<point x="519" y="17"/>
			<point x="539" y="0" type="curve"/>
		</contour>
		<contour>
			<point x="230" y="551" type="line"/>
			<point x="230" y="605"/>
			<point x="260" y="633"/>
			<point x="309" y="633" type="curve"/>
			<point x="356" y="633"/>
			<point x="390" y="602"/>
			<point x="390" y="554" type="curve"/>
			<point x="390" y="500"/>
			<point x="344" y="454"/>
			<point x="286" y="416" type="curve"/>
			<point x="253" y="462"/>
			<point x="230" y="500"/>
			<point x="230" y="550" type="curve"/>
		</contour>
		<contour>
			<point x="150" y="167" type="line"/>
			<point x="150" y="233"/>
			<point x="184" y="284"/>
			<point x="253" y="327" type="curve"/>
			<point x="303" y="253"/>
			<point x="374" y="166"/>
			<point x="428" y="108" type="curve"/>
			<point x="388" y="61"/>
			<point x="334" y="38"/>
			<point x="281" y="38" type="curve"/>
			<point x="237" y="38"/>
			<point x="150" y="69"/>
			<point x="150" y="166" type="curve"/>
		</contour>
	</outline>
</glyph>
<glyph name="at" format="1">
	<advance width="778"/>
	<outline>
		<contour>
			<point x="561" y="125" type="line"/>
			<point x="511" y="101"/>
			<point x="454" y="87"/>
			<point x="381" y="87" type="curve"/>
			<point x="237" y="87"/>
			<point x="115" y="167"/>
			<point x="115" y="322" type="curve"/>
			<point x="115" y="412"/>
			<point x="152" y="485"/>
			<point x="212" y="537" type="curve"/>
			<point x="272" y="588"/>
			<point x="349" y="615"/>
			<point x="437" y="615" type="curve"/>
			<point x="521" y="615"/>
			<point x="579" y="594"/>
			<point x="617" y="563" type="curve"/>
			<point x="659" y="530"/>
			<point x="676" y="484"/>
			<point x="676" y="435" type="curve"/>
			<point x="676" y="376"/>
			<point x="652" y="325"/>
			<point x="619" y="286" type="curve"/>
			<point x="591" y="255"/>
			<point x="558" y="241"/>
			<point x="534" y="241" type="curve"/>
			<point x="503" y="241"/>
			<point x="492" y="261"/>
			<point x="506" y="310" type="curve"/>
			<point x="566" y="517" type="line"/>
			<point x="506" y="517" type="line"/>
			<point x="499" y="487" type="line"/>
			<point x="496" y="487" type="line"/>
			<point x="484" y="508"/>
			<point x="460" y="518"/>
			<point x="428" y="518" type="curve"/>
			<point x="379" y="518"/>
			<point x="331" y="496"/>
			<point x="290" y="453" type="curve"/>
			<point x="246" y="408"/>
			<point x="222" y="355"/>
			<point x="222" y="292" type="curve"/>
			<point x="222" y="230"/>
			<point x="256" y="196"/>
			<point x="306" y="196" type="curve"/>
			<point x="363" y="196"/>
			<point x="416" y="239"/>
			<point x="444" y="282" type="curve"/>
			<point x="446" y="282" type="line"/>
			<point x="441" y="260"/>
			<point x="444" y="240"/>
			<point x="454" y="224" type="curve"/>
			<point x="468" y="205"/>
			<point x="493" y="196"/>
			<point x="523" y="196" type="curve"/>
			<point x="568" y="196"/>
			<point x="613" y="215"/>
			<point x="655" y="255" type="curve"/>
			<point x="704" y="300"/>
			<point x="733" y="365"/>
			<point x="733" y="435" type="curve"/>
			<point x="733" y="554"/>
			<point x="643" y="662"/>
			<point x="442" y="662" type="curve"/>
			<point x="208" y="662"/>
			<point x="50" y="517"/>
			<point x="50" y="326" type="curve"/>
			<point x="50" y="159"/>
			<point x="174" y="40"/>
			<point x="365" y="40" type="curve"/>
			<point x="445" y="40"/>
			<point x="532" y="54"/>
			<point x="588" y="90" type="curve"/>
		</contour>
		<contour>
			<point x="289" y="305" type="line"/>
			<point x="289" y="350"/>
			<point x="309" y="391"/>
			<point x="341" y="426" type="curve"/>
			<point x="371" y="460"/>
			<point x="404" y="475"/>
			<point x="438" y="475" type="curve"/>
			<point x="472" y="475"/>
			<point x="485" y="457"/>
			<point x="485" y="446" type="curve"/>
			<point x="485" y="436"/>
			<point x="474" y="397"/>
			<point x="461" y="363" type="curve"/>
			<point x="443" y="314"/>
			<point x="381" y="252"/>
			<point x="334" y="252" type="curve"/>
			<point x="301" y="252"/>
			<point x="289" y="272"/>
			<point x="289" y="304" type="curve"/>
		</contour>
	</outline>
</glyph>
<glyph name="b" format="1">
	<advance width="585"/>
	<outline>
		<contour>
			<point x="72" y="0" type="line"/>
			<point x="159" y="0" type="line"/>
			<point x="158" y="55" type="line"/>
			<point x="161" y="55" type="line"/>
			<point x="192" y="30"/>
			<point x="237" y="-12"/>
			<point x="319" y="-12" type="curve"/>
			<point x="473" y="-12"/>
			<point x="543" y="109"/>
			<point x="543" y="270" type="curve"/>
			<point x="543" y="456"/>
			<point x="445" y="552"/>
			<point x="323" y="552" type="curve"/>
			<point x="255" y="552"/>
			<point x="204" y="524"/>
			<point x="161" y="485" type="curve"/>
			<point x="159" y="485" type="line"/>
			<point x="159" y="738" type="line"/>
			<point x="72" y="738" type="line"/>
		</contour>
		<contour>
			<point x="159" y="411" type="line"/>
			<point x="200" y="457"/>
			<point x="249" y="490"/>
			<point x="305" y="490" type="curve"/>
			<point x="398" y="490"/>
			<point x="452" y="407"/>
			<point x="453" y="269" type="curve"/>
			<point x="453" y="135"/>
			<point x="398" y="50"/>
			<point x="305" y="50" type="curve"/>
			<point x="229" y="50"/>
			<point x="184" y="100"/>
			<point x="159" y="134" type="curve"/>
		</contour>
	</outline>
</glyph>
<glyph name="bar" format="1">
	<advance width="380"/>
	<outline>
		<contour>
			<point x="161" y="-254" type="line"/>
			<point x="220" y="-254" type="line"/>
			<point x="220" y="761" type="line"/>
			<point x="161" y="761" type="line"/>
		</contour>
	</outline>
</glyph>
<glyph name="braceright" format="1">
	<advance width="369"/>
	<outline>
		<contour>
			<point x="311" y="326" type="line"/>
			<point x="284" y="330"/>
			<point x="264" y="338"/>
			<point x="251" y="354" type="curve"/>
			<point x="236" y="371"/>
			<point x="228" y="392"/>
			<point x="228" y="436" type="curve"/>
			<point x="228" y="581" type="line"/>
			<point x="228" y="644"/>
			<point x="215" y="683"/>
			<point x="190" y="708" type="curve"/>
			<point x="158" y="741"/>
			<point x="103" y="749"/>
			<point x="35" y="750" type="curve"/>
			<point x="35" y="690" type="line"/>
			<point x="72" y="689"/>
			<point x="101" y="680"/>
			<point x="117" y="661" type="curve"/>
			<point x="133" y="643"/>
			<point x="140" y="612"/>
			<point x="140" y="563" type="curve"/>
			<point x="140" y="435" type="line"/>
			<point x="140" y="384"/>
			<point x="152" y="350"/>
			<point x="174" y="328" type="curve"/>
			<point x="192" y="309"/>
			<point x="217" y="301"/>
			<point x="248" y="298" type="curve"/>
			<point x="248" y="295" type="line"/>
			<point x="217" y="292"/>
			<point x="192" y="283"/>
			<point x="174" y="264" type="curve"/>
			<point x="152" y="242"/>
			<point x="140" y="209"/>
			<point x="140" y="157" type="curve"/>
			<point x="140" y="29" type="line"/>
			<point x="140" y="-20"/>
			<point x="133" y="-51"/>
			<point x="117" y="-70" type="curve"/>
			<point x="99" y="-89"/>
			<point x="72" y="-97"/>
			<point x="35" y="-98" type="curve"/>
			<point x="35" y="-158" type="line"/>
			<point x="103" y="-157"/>
			<point x="158" y="-149"/>
			<point x="190" y="-116" type="curve"/>
			<point x="215" y="-91"/>
			<point x="228" y="-52"/>
			<point x="228" y="11" type="curve"/>
			<point x="228" y="156" type="line"/>
			<point x="228" y="200"/>
			<point x="236" y="222"/>
			<point x="251" y="239" type="curve"/>
			<point x="264" y="254"/>
			<point x="284" y="262"/>
			<point x="311" y="266" type="curve"/>
		</contour>
	</outline>
</glyph>
<glyph name="brokenbar" format="1">
	<advance width="380"/>
	<outline>
		<contour>
			<point x="161" y="330" type="line"/>
			<point x="220" y="330" type="line"/>
			<point x="220" y="685" type="line"/>
			<point x="161" y="685" type="line"/>
		</contour>
		<contour>
			<point x="161" y="-178" type="line"/>
			<point x="220" y="-178" type="line"/>
			<point x="220" y="178" type="line"/>
			<point x="161" y="178" type="line"/>
		</contour>
	</outline>
</glyph>
<glyph name="c" format="1">
	<advance width="560"/>
	<outline>
		<contour>
			<point x="516" y="419" type="line"/>
			<point x="488" y="493"/>
			<point x="422" y="552"/>
			<point x="299" y="552" type="curve"/>
			<point x="151" y="552"/>
			<point x="42" y="463"/>
			<point x="42" y="271" type="curve"/>
			<point x="42" y="72"/>
			<point x="146" y="-12"/>
			<point x="297" y="-12" type="curve"/>
			<point x="418" y="-12"/>
			<point x="493" y="48"/>
			<point x="523" y="136" type="curve"/>
			<point x="432" y="147" type="line"/>
			<point x="409" y="87"/>
			<point x="369" y="46"/>
			<point x="297" y="46" type="curve"/>
			<point x="211" y="46"/>
			<point x="132" y="101"/>
			<point x="132" y="270" type="curve"/>
			<point x="132" y="423"/>
			<point x="207" y="494"/>
			<point x="298" y="494" type="curve"/>
			<point x="365" y="494"/>
			<point x="402" y="458"/>
			<point x="427" y="408" type="curve"/>
		</contour>
	</outline>
</glyph>
<glyph name="cent" format="1">
	<advance width="644"/>
	<outline>
		<contour>
			<point x="344" y="578" type="line"/>
			<point x="402" y="573"/>
			<point x="446" y="534"/>
			<point x="465" y="494" type="curve"/>
			<point x="551" y="504" type="line"/>
			<point x="522" y="577"/>
			<point x="452" y="632"/>
			<point x="344" y="636" type="curve"/>
			<point x="344" y="706" type="line"/>
			<point x="294" y="706" type="line"/>
			<point x="294" y="635" type="line"/>
			<point x="142" y="621"/>
			<point x="68" y="516"/>
			<point x="68" y="355" type="curve"/>
			<point x="68" y="165"/>
			<point x="158" y="82"/>
			<point x="294" y="73" type="curve"/>
			<point x="294" y="-1" type="line"/>
			<point x="344" y="-1" type="line"/>
			<point x="344" y="73" type="line"/>
			<point x="451" y="77"/>
			<point x="523" y="128"/>
			<point x="557" y="216" type="curve"/>
			<point x="470" y="229" type="line"/>
			<point x="446" y="167"/>
			<point x="404" y="137"/>
			<point x="344" y="131" type="curve"/>
		</contour>
		<contour>
			<point x="294" y="132" type="line"/>
			<point x="213" y="144"/>
			<point x="155" y="205"/>
			<point x="155" y="354" type="curve"/>
			<point x="155" y="489"/>
			<point x="213" y="562"/>
			<point x="294" y="575" type="curve"/>
		</contour>
	</outline>
</glyph>
<glyph name="circumflex" format="1">
	<advance width="406"/>
	<outline>
		<contour>
			<point x="204" y="649" type="line"/>
			<point x="268" y="594" type="line"/>
			<point x="337" y="594" type="line"/>
			<point x="231" y="694" type="line"/>
			<point x="175" y="694" type="line"/>
			<point x="70" y="594" type="line"/>
			<point x="138" y="594" type="line"/>
			<point x="202" y="649" type="line"/>
		</contour>
	</outline>
</glyph>
<glyph name="circumflexbelowcmb" format="1">
	<outline>
		<contour>
			<point x="1" y="-172" type="line"/>
			<point x="64" y="-227" type="line"/>
			<point x="133" y="-227" type="line"/>
			<point x="27" y="-128" type="line"/>
			<point x="-29" y="-128" type="line"/>
			<point x="-134" y="-227" type="line"/>
			<point x="-66" y="-227" type="line"/>
			<point x="-2" y="-172" type="line"/>
		</contour>
	</outline>
</glyph>
<glyph name="circumflexcmb" format="1">
	<outline>
		<contour>
			<point x="1" y="649" type="line"/>
			<point x="64" y="594" type="line"/>
			<point x="133" y="594" type="line"/>
			<point x="27" y="694" type="line"/>
			<point x="-29" y="694" type="line"/>
			<point x="-134" y="594" type="line"/>
			<point x="-66" y="594" type="line"/>
			<point x="-2" y="649" type="line"/>
		</contour>
	</outline>
</glyph>
<glyph name="copyright" format="1">
	<advance width="764"/>
	<outline>
		<contour>
			<point x="519" y="542" type="line"/>
			<point x="508" y="568"/>
			<point x="494" y="583"/>
			<point x="474" y="595" type="curve"/>
			<point x="451" y="610"/>
			<point x="422" y="618"/>
			<point x="389" y="618" type="curve"/>
			<point x="337" y="618"/>
			<point x="296" y="599"/>
			<point x="264" y="568" type="curve"/>
			<point x="232" y="536"/>
			<point x="215" y="488"/>
			<point x="215" y="433" type="curve"/>
			<point x="215" y="377"/>
			<point x="233" y="330"/>
			<point x="265" y="297" type="curve"/>
			<point x="298" y="265"/>
			<point x="340" y="248"/>
			<point x="391" y="248" type="curve"/>
			<point x="428" y="248"/>
			<point x="461" y="260"/>
			<point x="481" y="277" type="curve"/>
			<point x="502" y="293"/>
			<point x="516" y="312"/>
			<point x="526" y="333" type="curve"/>
			<point x="473" y="341" type="line"/>
			<point x="466" y="328"/>
			<point x="453" y="313"/>
			<point x="439" y="304" type="curve"/>
			<point x="427" y="297"/>
			<point x="411" y="291"/>
			<point x="392" y="291" type="curve"/>
			<point x="362" y="291"/>
			<point x="334" y="304"/>
			<point x="311" y="333" type="curve"/>
			<point x="287" y="362"/>
			<point x="280" y="398"/>
			<point x="280" y="434" type="curve"/>
			<point x="280" y="485"/>
			<point x="295" y="517"/>
			<point x="311" y="536" type="curve"/>
			<point x="334" y="563"/>
			<point x="362" y="575"/>
			<point x="392" y="575" type="curve"/>
			<point x="412" y="575"/>
			<point x="423" y="571"/>
			<point x="437" y="563" type="curve"/>
			<point x="448" y="556"/>
			<point x="459" y="546"/>
			<point x="468" y="533" type="curve"/>
		</contour>
		<contour>
			<point x="382" y="695" type="line"/>
			<point x="526" y="695"/>
			<point x="639" y="579"/>
			<point x="639" y="432" type="curve"/>
			<point x="639" y="286"/>
			<point x="526" y="170"/>
			<point x="382" y="170" type="curve"/>
			<point x="239" y="170"/>
			<point x="125" y="286"/>
			<point x="125" y="432" type="curve"/>
			<point x="125" y="579"/>
			<point x="239" y="695"/>
			<point x="381" y="695" type="curve"/>
		</contour>
		<contour>
			<point x="381" y="735" type="line"/>
			<point x="214" y="735"/>
			<point x="81" y="601"/>
			<point x="81" y="432" type="curve"/>
			<point x="81" y="263"/>
			<point x="214" y="129"/>
			<point x="381" y="129" type="curve"/>
			<point x="548" y="129"/>
			<point x="681" y="263"/>
			<point x="681" y="432" type="curve"/>
			<point x="681" y="601"/>
			<point x="548" y="735"/>
			<point x="382" y="735" type="curve"/>
		</contour>
	</outline>
</glyph>
<glyph name="currency" format="1">
	<advance width="662"/>
	<outline>
		<contour>
			<point x="444" y="508" type="line"/>
			<point x="411" y="533"/>
			<point x="372" y="547"/>
			<point x="331" y="547" type="curve"/>
			<point x="289" y="547"/>
			<point x="250" y="533"/>
			<point x="219" y="509" type="curve"/>
			<point x="147" y="582" type="line"/>
			<point x="105" y="539" type="line"/>
			<point x="178" y="466" type="line"/>
			<point x="153" y="434"/>
			<point x="139" y="395"/>
			<point x="139" y="351" type="curve"/>
			<point x="139" y="308"/>
			<point x="153" y="268"/>
			<point x="178" y="237" type="curve"/>
			<point x="105" y="163" type="line"/>
			<point x="147" y="120" type="line"/>
			<point x="219" y="194" type="line"/>
			<point x="250" y="170"/>
			<point x="289" y="156"/>
			<point x="331" y="156" type="curve"/>
			<point x="373" y="156"/>
			<point x="413" y="170"/>
			<point x="443" y="195" type="curve"/>
			<point x="516" y="120" type="line"/>
			<point x="558" y="163" type="line"/>
			<point x="485" y="238" type="line"/>
			<point x="508" y="269"/>
			<point x="523" y="309"/>
			<point x="523" y="351" type="curve"/>
			<point x="523" y="394"/>
			<point x="508" y="433"/>
			<point x="485" y="465" type="curve"/>
			<point x="558" y="539" type="line"/>
			<point x="516" y="582" type="line"/>
		</contour>
		<contour>
			<point x="331" y="485" type="line"/>
			<point x="403" y="485"/>
			<point x="462" y="425"/>
			<point x="462" y="351" type="curve"/>
			<point x="462" y="278"/>
			<point x="403" y="218"/>
			<point x="331" y="218" type="curve"/>
			<point x="258" y="218"/>
			<point x="199" y="278"/>
			<point x="199" y="351" type="curve"/>
			<point x="199" y="425"/>
			<point x="258" y="485"/>
			<point x="330" y="485" type="curve"/>
		</contour>
	</outline>
</glyph>
<glyph name="d" format="1">
	<advance width="585"/>
	<outline>
		<contour>
			<point x="426" y="55" type="line"/>
			<point x="425" y="0" type="line"/>
			<point x="513" y="0" type="line"/>
			<point x="513" y="738" type="line"/>
			<point x="425" y="738" type="line"/>
			<point x="425" y="487" type="line"/>
			<point x="423" y="487" type="line"/>
			<point x="381" y="525"/>
			<point x="328" y="552"/>
			<point x="263" y="552" type="curve"/>
			<point x="139" y="552"/>
			<point x="42" y="457"/>
			<point x="42" y="270" type="curve"/>
			<point x="42" y="103"/>
			<point x="114" y="-12"/>
			<point x="266" y="-12" type="curve"/>
			<point x="350" y="-12"/>
			<point x="396" y="32"/>
			<point x="424" y="55" type="curve"/>
		</contour>
		<contour>
			<point x="279" y="50" type="line"/>
			<point x="186" y="50"/>
			<point x="132" y="133"/>
			<point x="132" y="269" type="curve"/>
			<point x="132" y="407"/>
			<point x="186" y="490"/>
			<point x="280" y="490" type="curve"/>
			<point x="336" y="490"/>
			<point x="385" y="457"/>
			<point x="425" y="411" type="curve"/>
			<point x="425" y="134" type="line"/>
			<point x="398" y="96"/>
			<point x="354" y="50"/>
			<point x="280" y="50" type="curve"/>
		</contour>
	</outline>
</glyph>
<glyph name="dieresis" format="1">
	<advance width="406"/>
	<outline>
		<contour>
			<point x="77" y="694" type="line"/>
			<point x="77" y="602" type="line"/>
			<point x="140" y="602" type="line"/>
			<point x="140" y="694" type="line"/>
		</contour>
		<contour>
			<point x="267" y="694" type="line"/>
			<point x="267" y="602" type="line"/>
			<point x="329" y="602" type="line"/>
			<point x="329" y="694" type="line"/>
		</contour>
	</outline>
</glyph>
<glyph name="eight" format="1">
	<advance width="677"/>
	<outline>
		<contour>
			<point x="239" y="372" type="line"/>
			<point x="157" y="362"/>
			<point x="70" y="311"/>
			<point x="70" y="187" type="curve"/>
			<point x="70" y="57"/>
			<point x="170" y="-12"/>
			<point x="339" y="-12" type="curve"/>
			<point x="517" y="-12"/>
			<point x="608" y="62"/>
			<point x="608" y="187" type="curve"/>
			<point x="608" y="307"/>
			<point x="524" y="362"/>
			<point x="438" y="372" type="curve"/>
			<point x="438" y="374" type="line"/>
			<point x="518" y="382"/>
			<point x="588" y="424"/>
			<point x="588" y="534" type="curve"/>
			<point x="588" y="646"/>
			<point x="487" y="715"/>
			<point x="339" y="715" type="curve"/>
			<point x="182" y="715"/>
			<point x="89" y="642"/>
			<point x="89" y="534" type="curve"/>
			<point x="89" y="430"/>
			<point x="158" y="384"/>
			<point x="239" y="374" type="curve"/>
		</contour>
		<contour>
			<point x="177" y="525" type="line"/>
			<point x="177" y="603"/>
			<point x="233" y="652"/>
			<point x="339" y="652" type="curve"/>
			<point x="445" y="652"/>
			<point x="500" y="601"/>
			<point x="500" y="525" type="curve"/>
			<point x="500" y="438"/>
			<point x="431" y="401"/>
			<point x="339" y="401" type="curve"/>
			<point x="228" y="401"/>
			<point x="177" y="445"/>
			<point x="177" y="524" type="curve"/>
		</contour>
		<contour>
			<point x="159" y="192" type="line"/>
			<point x="159" y="281"/>
			<point x="227" y="338"/>
			<point x="339" y="338" type="curve"/>
			<point x="457" y="338"/>
			<point x="518" y="281"/>
			<point x="518" y="192" type="curve"/>
			<point x="518" y="98"/>
			<point x="435" y="51"/>
			<point x="339" y="51" type="curve"/>
			<point x="239" y="51"/>
			<point x="159" y="98"/>
			<point x="159" y="191" type="curve"/>
		</contour>
	</outline>
</glyph>
<glyph name="emdash" format="1">
	<advance width="948"/>
	<outline>
		<contour>
			<point x="23" y="290" type="line"/>
			<point x="23" y="216" type="line"/>
			<point x="924" y="216" type="line"/>
			<point x="924" y="290" type="line"/>
		</contour>
	</outline>
</glyph>
<glyph name="eth" format="1">
	<advance width="596"/>
	<outline>
		<contour>
			<point x="514" y="698" type="line"/>
			<point x="473" y="724" type="line"/>
			<point x="359" y="688" type="line"/>
			<point x="308" y="718"/>
			<point x="252" y="739"/>
			<point x="194" y="750" type="curve"/>
			<point x="92" y="719" type="line"/>
			<point x="157" y="706"/>
			<point x="216" y="684"/>
			<point x="257" y="660" type="curve"/>
			<point x="101" y="612" type="line"/>
			<point x="142" y="586" type="line"/>
			<point x="311" y="636" type="line"/>
			<point x="354" y="610"/>
			<point x="376" y="584"/>
			<point x="395" y="559" type="curve"/>
			<point x="416" y="533"/>
			<point x="434" y="500"/>
			<point x="443" y="463" type="curve"/>
			<point x="441" y="462" type="line"/>
			<point x="411" y="526"/>
			<point x="346" y="552"/>
			<point x="278" y="552" type="curve"/>
			<point x="142" y="552"/>
			<point x="42" y="469"/>
			<point x="42" y="272" type="curve"/>
			<point x="42" y="92"/>
			<point x="124" y="-12"/>
			<point x="298" y="-12" type="curve"/>
			<point x="379" y="-12"/>
			<point x="440" y="7"/>
			<point x="484" y="55" type="curve"/>
			<point x="529" y="106"/>
			<point x="554" y="179"/>
			<point x="554" y="305" type="curve"/>
			<point x="554" y="388"/>
			<point x="538" y="468"/>
			<point x="506" y="530" type="curve"/>
			<point x="481" y="582"/>
			<point x="447" y="627"/>
			<point x="401" y="663" type="curve"/>
		</contour>
		<contour>
			<point x="298" y="46" type="line"/>
			<point x="198" y="46"/>
			<point x="132" y="118"/>
			<point x="132" y="270" type="curve"/>
			<point x="132" y="431"/>
			<point x="211" y="494"/>
			<point x="298" y="494" type="curve"/>
			<point x="393" y="494"/>
			<point x="464" y="423"/>
			<point x="464" y="275" type="curve"/>
			<point x="464" y="134"/>
			<point x="407" y="46"/>
			<point x="299" y="46" type="curve"/>
		</contour>
	</outline>
</glyph>
<glyph name="exclam" format="1">
	<advance width="257"/>
	<outline>
		<contour>
			<point x="176" y="719" type="line"/>
			<point x="80" y="719" type="line"/>
			<point x="95" y="196" type="line"/>
			<point x="162" y="196" type="line"/>
		</contour>
		<contour>
			<point x="86" y="112" type="line"/>
			<point x="86" y="0" type="line"/>
			<point x="170" y="0" type="line"/>
			<point x="170" y="112" type="line"/>
		</contour>
	</outline>
</glyph>
<glyph name="exclamdown" format="1">
	<advance width="257"/>
	<outline>
		<contour>
			<point x="87" y="386" type="line"/>
			<point x="170" y="386" type="line"/>
			<point x="170" y="497" type="line"/>
			<point x="87" y="497" type="line"/>
		</contour>
		<contour>
			<point x="176" y="-222" type="line"/>
			<point x="162" y="307" type="line"/>
			<point x="95" y="307" type="line"/>
			<point x="80" y="-222" type="line"/>
		</contour>
	</outline>
</glyph>
<glyph name="florin" format="1">
	<advance width="582"/>
	<outline>
		<contour>
			<point x="332" y="432" type="line"/>
			<point x="342" y="493" type="line"/>
			<point x="356" y="544"/>
			<point x="371" y="591"/>
			<point x="396" y="621" type="curve"/>
			<point x="414" y="642"/>
			<point x="438" y="653"/>
			<point x="470" y="653" type="curve"/>
			<point x="501" y="653"/>
			<point x="522" y="646"/>
			<point x="543" y="635" type="curve"/>
			<point x="571" y="692" type="line"/>
			<point x="539" y="708"/>
			<point x="504" y="715"/>
			<point x="461" y="715" type="curve"/>
			<point x="407" y="715"/>
			<point x="368" y="700"/>
			<point x="336" y="667" type="curve"/>
			<point x="304" y="632"/>
			<point x="280" y="581"/>
			<point x="261" y="508" type="curve"/>
			<point x="245" y="432" type="line"/>
			<point x="150" y="432" type="line"/>
			<point x="135" y="374" type="line"/>
			<point x="231" y="374" type="line"/>
			<point x="149" y="32" type="line"/>
			<point x="137" y="-18"/>
			<point x="124" y="-45"/>
			<point x="104" y="-69" type="curve"/>
			<point x="85" y="-88"/>
			<point x="62" y="-99"/>
			<point x="35" y="-99" type="curve"/>
			<point x="7" y="-99"/>
			<point x="-18" y="-92"/>
			<point x="-42" y="-80" type="curve"/>
			<point x="-68" y="-139" type="line"/>
			<point x="-30" y="-157"/>
			<point x="4" y="-162"/>
			<point x="37" y="-162" type="curve"/>
			<point x="98" y="-162"/>
			<point x="137" y="-145"/>
			<point x="169" y="-112" type="curve"/>
			<point x="201" y="-79"/>
			<point x="222" y="-28"/>
			<point x="238" y="37" type="curve"/>
			<point x="318" y="374" type="line"/>
			<point x="452" y="374" type="line"/>
			<point x="467" y="432" type="line"/>
		</contour>
	</outline>
</glyph>
<glyph name="four" format="1">
	<advance width="679"/>
	<outline>
		<contour>
			<point x="73" y="239" type="line"/>
			<point x="73" y="181" type="line"/>
			<point x="405" y="181" type="line"/>
			<point x="405" y="0" type="line"/>
			<point x="493" y="0" type="line"/>
			<point x="493" y="181" type="line"/>
			<point x="595" y="181" type="line"/>
			<point x="595" y="245" type="line"/>
			<point x="493" y="245" type="line"/>
			<point x="493" y="708" type="line"/>
			<point x="404" y="708" type="line"/>
		</contour>
		<contour>
			<point x="165" y="245" type="line"/>
			<point x="299" y="440" type="line"/>
			<point x="335" y="495"/>
			<point x="370" y="550"/>
			<point x="404" y="606" type="curve"/>
			<point x="407" y="606" type="line"/>
			<point x="405" y="548"/>
			<point x="405" y="488"/>
			<point x="405" y="429" type="curve"/>
			<point x="405" y="245" type="line"/>
		</contour>
	</outline>
</glyph>
<glyph name="fraction" format="1">
	<advance width="310"/>
	<outline>
		<contour>
			<point x="426" y="715" type="line"/>
			<point x="353" y="715" type="line"/>
			<point x="-110" y="-12" type="line"/>
			<point x="-36" y="-12" type="line"/>
		</contour>
	</outline>
</glyph>
<glyph name="gravebelowcmb" format="1">
	<outline>
		<contour>
			<point x="-167" y="-128" type="line"/>
			<point x="-28" y="-234" type="line"/>
			<point x="34" y="-234" type="line"/>
			<point x="-64" y="-128" type="line"/>
		</contour>
	</outline>
</glyph>
<glyph name="gravecmb" format="1">
	<outline>
		<contour>
			<point x="-167" y="693" type="line"/>
			<point x="-28" y="587" type="line"/>
			<point x="34" y="587" type="line"/>
			<point x="-64" y="693" type="line"/>
		</contour>
	</outline>
</glyph>
<glyph name="guilsinglleft" format="1">
	<advance width="296"/>
	<outline>
		<contour>
			<point x="109" y="251" type="line"/>
			<point x="109" y="254" type="line"/>
			<point x="232" y="379" type="line"/>
			<point x="232" y="458" type="line"/>
			<point x="50" y="281" type="line"/>
			<point x="50" y="225" type="line"/>
			<point x="232" y="47" type="line"/>
			<point x="232" y="127" type="line"/>
		</contour>
	</outline>
</glyph>
<glyph name="guilsinglright" format="1">
	<advance width="296"/>
	<outline>
		<contour>
			<point x="187" y="251" type="line"/>
			<point x="64" y="127" type="line"/>
			<point x="64" y="47" type="line"/>
			<point x="246" y="225" type="line"/>
			<point x="246" y="281" type="line"/>
			<point x="64" y="458" type="line"/>
			<point x="64" y="379" type="line"/>
			<point x="187" y="254" type="line"/>
		</contour>
	</outline>
</glyph>
<glyph name="hungarumlaut" format="1">
	<advance width="406"/>
	<outline>
		<contour>
			<point x="255" y="700" type="line"/>
			<point x="176" y="700" type="line"/>
			<point x="105" y="581" type="line"/>
			<point x="158" y="581" type="line"/>
		</contour>
		<contour>
			<point x="405" y="700" type="line"/>
			<point x="325" y="700" type="line"/>
			<point x="254" y="581" type="line"/>
			<point x="307" y="581" type="line"/>
		</contour>
	</outline>
</glyph>
<glyph name="i" format="1">
	<advance width="242"/>
	<outline>
		<contour>
			<point x="165" y="652" type="line"/>
			<point x="165" y="742" type="line"/>
			<point x="77" y="742" type="line"/>
			<point x="77" y="652" type="line"/>
		</contour>
		<contour>
			<point x="165" y="540" type="line"/>
			<point x="77" y="540" type="line"/>
			<point x="77" y="0" type="line"/>
			<point x="165" y="0" type="line"/>
		</contour>
	</outline>
</glyph>
<glyph name="icircumflex" format="1">
	<advance width="242"/>
	<outline>
		<contour>
			<point x="165" y="540" type="line"/>
			<point x="77" y="540" type="line"/>
			<point x="77" y="0" type="line"/>
			<point x="165" y="0" type="line"/>
		</contour>
		<contour>
			<point x="122" y="649" type="line"/>
			<point x="186" y="594" type="line"/>
			<point x="255" y="594" type="line"/>
			<point x="149" y="694" type="line"/>
			<point x="93" y="694" type="line"/>
			<point x="-12" y="594" type="line"/>
			<point x="56" y="594" type="line"/>
			<point x="120" y="649" type="line"/>
		</contour>
	</outline>
</glyph>
<glyph name="idieresis" format="1">
	<advance width="242"/>
	<outline>
		<contour>
			<point x="165" y="540" type="line"/>
			<point x="77" y="540" type="line"/>
			<point x="77" y="0" type="line"/>
			<point x="165" y="0" type="line"/>
		</contour>
		<contour>
			<point x="-5" y="694" type="line"/>
			<point x="-5" y="602" type="line"/>
			<point x="58" y="602" type="line"/>
			<point x="58" y="694" type="line"/>
		</contour>
		<contour>
			<point x="185" y="694" type="line"/>
			<point x="185" y="602" type="line"/>
			<point x="247" y="602" type="line"/>
			<point x="247" y="694" type="line"/>
		</contour>
	</outline>
</glyph>
<glyph name="igrave" format="1">
	<advance width="242"/>
	<outline>
		<contour>
			<point x="165" y="540" type="line"/>
			<point x="77" y="540" type="line"/>
			<point x="77" y="0" type="line"/>
			<point x="165" y="0" type="line"/>
		</contour>
		<contour>
			<point x="-11" y="693" type="line"/>
			<point x="128" y="587" type="line"/>
			<point x="190" y="587" type="line"/>
			<point x="92" y="693" type="line"/>
		</contour>
	</outline>
</glyph>
<glyph name="k" format="1">
	<advance width="529"/>
	<outline>
		<contour>
			<point x="285" y="325" type="line"/>
			<point x="475" y="540" type="line"/>
			<point x="369" y="540" type="line"/>
			<point x="261" y="417" type="line"/>
			<point x="228" y="378"/>
			<point x="194" y="338"/>
			<point x="161" y="297" type="curve"/>
			<point x="158" y="297" type="line"/>
			<point x="159" y="340"/>
			<point x="159" y="378"/>
			<point x="159" y="419" type="curve"/>
			<point x="159" y="738" type="line"/>
			<point x="72" y="738" type="line"/>
			<point x="72" y="0" type="line"/>
			<point x="159" y="0" type="line"/>
			<point x="159" y="202" type="line"/>
			<point x="228" y="265" type="line"/>
			<point x="406" y="0" type="line"/>
			<point x="520" y="0" type="line"/>
		</contour>
	</outline>
</glyph>
<glyph name="less" format="1">
	<advance width="635"/>
	<outline>
		<contour>
			<point x="162" y="265" type="line"/>
			<point x="162" y="267" type="line"/>
			<point x="530" y="439" type="line"/>
			<point x="530" y="504" type="line"/>
			<point x="86" y="291" type="line"/>
			<point x="86" y="241" type="line"/>
			<point x="530" y="28" type="line"/>
			<point x="530" y="93" type="line"/>
		</contour>
	</outline>
</glyph>
<glyph name="lslash" format="1">
	<advance width="242"/>
	<outline>
		<contour>
			<point x="165" y="444" type="line"/>
			<point x="165" y="738" type="line"/>
			<point x="77" y="738" type="line"/>
			<point x="77" y="399" type="line"/>
			<point x="23" y="363" type="line"/>
			<point x="23" y="298" type="line"/>
			<point x="77" y="334" type="line"/>
			<point x="77" y="0" type="line"/>
			<point x="165" y="0" type="line"/>
			<point x="165" y="379" type="line"/>
			<point x="220" y="416" type="line"/>
			<point x="220" y="480" type="line"/>
		</contour>
	</outline>
</glyph>
<glyph name="macron" format="1">
	<advance width="406"/>
	<outline>
		<contour>
			<point x="85" y="672" type="line"/>
			<point x="85" y="625" type="line"/>
			<point x="321" y="625" type="line"/>
			<point x="321" y="672" type="line"/>
		</contour>
	</outline>
</glyph>
<glyph name="nine" format="1">
	<advance width="678"/>
	<outline>
		<contour>
			<point x="522" y="355" type="line"/>
			<point x="517" y="157"/>
			<point x="458" y="51"/>
			<point x="329" y="51" type="curve"/>
			<point x="243" y="51"/>
			<point x="202" y="100"/>
			<point x="175" y="159" type="curve"/>
			<point x="85" y="145" type="line"/>
			<point x="128" y="47"/>
			<point x="203" y="-12"/>
			<point x="328" y="-12" type="curve"/>
			<point x="553" y="-12"/>
			<point x="612" y="180"/>
			<point x="612" y="392" type="curve"/>
			<point x="612" y="583"/>
			<point x="535" y="715"/>
			<point x="330" y="715" type="curve"/>
			<point x="136" y="715"/>
			<point x="68" y="600"/>
			<point x="68" y="484" type="curve"/>
			<point x="68" y="377"/>
			<point x="137" y="254"/>
			<point x="327" y="254" type="curve"/>
			<point x="442" y="254"/>
			<point x="503" y="312"/>
			<point x="520" y="355" type="curve"/>
		</contour>
		<contour>
			<point x="518" y="453" type="line"/>
			<point x="518" y="391"/>
			<point x="446" y="317"/>
			<point x="337" y="317" type="curve"/>
			<point x="214" y="317"/>
			<point x="158" y="401"/>
			<point x="158" y="487" type="curve"/>
			<point x="158" y="568"/>
			<point x="206" y="652"/>
			<point x="334" y="652" type="curve"/>
			<point x="472" y="652"/>
			<point x="518" y="553"/>
			<point x="518" y="454" type="curve"/>
		</contour>
	</outline>
</glyph>
<glyph name="nine.superior" format="1">
	<advance width="450"/>
	<outline>
		<contour>
			<point x="312" y="571" type="line"/>
			<point x="307" y="490"/>
			<point x="277" y="449"/>
			<point x="222" y="449" type="curve"/>
			<point x="182" y="449"/>
			<point x="162" y="469"/>
			<point x="148" y="495" type="curve"/>
			<point x="76" y="484" type="line"/>
			<point x="104" y="429"/>
			<point x="151" y="400"/>
			<point x="221" y="400" type="curve"/>
			<point x="353" y="400"/>
			<point x="384" y="503"/>
			<point x="384" y="597" type="curve"/>
			<point x="384" y="704"/>
			<point x="328" y="764"/>
			<point x="221" y="764" type="curve"/>
			<point x="108" y="764"/>
			<point x="68" y="703"/>
			<point x="68" y="646" type="curve"/>
			<point x="68" y="591"/>
			<point x="110" y="532"/>
			<point x="216" y="532" type="curve"/>
			<point x="270" y="532"/>
			<point x="302" y="555"/>
			<point x="311" y="571" type="curve"/>
		</contour>
		<contour>
			<point x="311" y="634" type="line"/>
			<point x="311" y="607"/>
			<point x="270" y="581"/>
			<point x="225" y="581" type="curve"/>
			<point x="164" y="581"/>
			<point x="140" y="614"/>
			<point x="140" y="649" type="curve"/>
			<point x="140" y="683"/>
			<point x="167" y="715"/>
			<point x="224" y="715" type="curve"/>
			<point x="282" y="715"/>
			<point x="311" y="677"/>
			<point x="311" y="635" type="curve"/>
		</contour>
	</outline>
</glyph>
<glyph name="ntilde" format="1">
	<advance width="591"/>
	<outline>
		<contour>
			<point x="523" y="0" type="line"/>
			<point x="523" y="371" type="line"/>
			<point x="523" y="435"/>
			<point x="510" y="477"/>
			<point x="486" y="507" type="curve"/>
			<point x="459" y="538"/>
			<point x="417" y="552"/>
			<point x="364" y="552" type="curve"/>
			<point x="328" y="552"/>
			<point x="293" y="543"/>
			<point x="261" y="528" type="curve"/>
			<point x="227" y="512"/>
			<point x="194" y="490"/>
			<point x="162" y="465" type="curve"/>
			<point x="158" y="465" type="line"/>
			<point x="159" y="540" type="line"/>
			<point x="72" y="540" type="line"/>
			<point x="72" y="0" type="line"/>
			<point x="159" y="0" type="line"/>
			<point x="159" y="392" type="line"/>
			<point x="185" y="420"/>
			<point x="224" y="447"/>
			<point x="253" y="462" type="curve"/>
			<point x="281" y="476"/>
			<point x="309" y="484"/>
			<point x="337" y="484" type="curve"/>
			<point x="375" y="484"/>
			<point x="398" y="470"/>
			<point x="413" y="452" type="curve"/>
			<point x="432" y="427"/>
			<point x="435" y="389"/>
			<point x="435" y="347" type="curve"/>
			<point x="435" y="0" type="line"/>
		</contour>
		<contour>
			<point x="201" y="608" type="line"/>
			<point x="212" y="630"/>
			<point x="226" y="636"/>
			<point x="244" y="636" type="curve"/>
			<point x="256" y="636"/>
			<point x="271" y="633"/>
			<point x="281" y="627" type="curve"/>
			<point x="297" y="620" type="line"/>
			<point x="313" y="612"/>
			<point x="333" y="607"/>
			<point x="351" y="607" type="curve"/>
			<point x="395" y="607"/>
			<point x="417" y="634"/>
			<point x="430" y="665" type="curve"/>
			<point x="392" y="685" type="line"/>
			<point x="381" y="663"/>
			<point x="367" y="656"/>
			<point x="350" y="656" type="curve"/>
			<point x="337" y="656"/>
			<point x="323" y="660"/>
			<point x="312" y="666" type="curve"/>
			<point x="297" y="673" type="line"/>
			<point x="280" y="681"/>
			<point x="262" y="686"/>
			<point x="243" y="686" type="curve"/>
			<point x="199" y="686"/>
			<point x="176" y="659"/>
			<point x="164" y="628" type="curve"/>
		</contour>
	</outline>
</glyph>
<glyph name="oe" format="1">
	<advance width="968"/>
	<outline>
		<contour>
			<point x="930" y="255" type="line"/>
			<point x="930" y="351"/>
			<point x="906" y="430"/>
			<point x="859" y="483" type="curve"/>
			<point x="816" y="530"/>
			<point x="760" y="552"/>
			<point x="694" y="552" type="curve"/>
			<point x="595" y="552"/>
			<point x="524" y="500"/>
			<point x="496" y="412" type="curve"/>
			<point x="494" y="412" type="line"/>
			<point x="469" y="472"/>
			<point x="417" y="552"/>
			<point x="291" y="552" type="curve"/>
			<point x="144" y="552"/>
			<point x="42" y="467"/>
			<point x="42" y="270" type="curve"/>
			<point x="42" y="87"/>
			<point x="130" y="-12"/>
			<point x="291" y="-12" type="curve"/>
			<point x="408" y="-12"/>
			<point x="465" y="56"/>
			<point x="494" y="128" type="curve"/>
			<point x="496" y="128" type="line"/>
			<point x="524" y="21"/>
			<point x="609" y="-12"/>
			<point x="695" y="-12" type="curve"/>
			<point x="768" y="-12"/>
			<point x="818" y="7"/>
			<point x="856" y="34" type="curve"/>
			<point x="892" y="62"/>
			<point x="916" y="96"/>
			<point x="929" y="128" type="curve"/>
			<point x="837" y="136" type="line"/>
			<point x="807" y="73"/>
			<point x="761" y="41"/>
			<point x="695" y="41" type="curve"/>
			<point x="622" y="41"/>
			<point x="545" y="93"/>
			<point x="539" y="255" type="curve"/>
		</contour>
		<contour>
			<point x="132" y="270" type="line"/>
			<point x="132" y="439"/>
			<point x="217" y="494"/>
			<point x="292" y="494" type="curve"/>
			<point x="379" y="494"/>
			<point x="453" y="430"/>
			<point x="453" y="270" type="curve"/>
			<point x="453" y="109"/>
			<point x="379" y="46"/>
			<point x="292" y="46" type="curve"/>
			<point x="204" y="46"/>
			<point x="132" y="112"/>
			<point x="132" y="269" type="curve"/>
		</contour>
		<contour>
			<point x="539" y="303" type="line"/>
			<point x="546" y="433"/>
			<point x="604" y="498"/>
			<point x="693" y="498" type="curve"/>
			<point x="770" y="498"/>
			<point x="829" y="424"/>
			<point x="839" y="303" type="curve"/>
		</contour>
	</outline>
</glyph>
<glyph name="one" format="1">
	<advance width="567"/>
	<outline>
		<contour>
			<point x="83" y="596" type="line"/>
			<point x="114" y="530" type="line"/>
			<point x="281" y="608" type="line"/>
			<point x="281" y="0" type="line"/>
			<point x="369" y="0" type="line"/>
			<point x="369" y="708" type="line"/>
			<point x="313" y="708" type="line"/>
		</contour>
	</outline>
</glyph>
<glyph name="onehalf" format="1">
	<advance width="949"/>
	<outline>
		<contour>
			<point x="682" y="716" type="line"/>
			<point x="609" y="716" type="line"/>
			<point x="143" y="-12" type="line"/>
			<point x="217" y="-12" type="line"/>
		</contour>
		<contour>
			<point x="79" y="654" type="line"/>
			<point x="101" y="605" type="line"/>
			<point x="185" y="641" type="line"/>
			<point x="185" y="287" type="line"/>
			<point x="255" y="287" type="line"/>
			<point x="255" y="711" type="line"/>
			<point x="205" y="711" type="line"/>
		</contour>
		<contour>
			<point x="874" y="0" type="line"/>
			<point x="874" y="54" type="line"/>
			<point x="631" y="54" type="line"/>
			<point x="677" y="171"/>
			<point x="872" y="183"/>
			<point x="872" y="317" type="curve"/>
			<point x="872" y="379"/>
			<point x="830" y="428"/>
			<point x="716" y="428" type="curve"/>
			<point x="607" y="428"/>
			<point x="563" y="381"/>
			<point x="549" y="323" type="curve"/>
			<point x="622" y="319" type="line"/>
			<point x="632" y="354"/>
			<point x="655" y="383"/>
			<point x="713" y="383" type="curve"/>
			<point x="770" y="383"/>
			<point x="800" y="356"/>
			<point x="800" y="315" type="curve"/>
			<point x="800" y="213"/>
			<point x="585" y="192"/>
			<point x="540" y="11" type="curve"/>
			<point x="551" y="0" type="line"/>
		</contour>
	</outline>
</glyph>
<glyph name="onequarter" format="1">
	<advance width="939"/>
	<outline>
		<contour>
			<point x="691" y="716" type="line"/>
			<point x="618" y="716" type="line"/>
			<point x="152" y="-12" type="line"/>
			<point x="226" y="-12" type="line"/>
		</contour>
		<contour>
			<point x="83" y="646" type="line"/>
			<point x="105" y="597" type="line"/>
			<point x="192" y="641" type="line"/>
			<point x="192" y="287" type="line"/>
			<point x="262" y="287" type="line"/>
			<point x="262" y="711" type="line"/>
			<point x="212" y="711" type="line"/>
		</contour>
		<contour>
			<point x="500" y="143" type="line"/>
			<point x="500" y="102" type="line"/>
			<point x="717" y="102" type="line"/>
			<point x="717" y="0" type="line"/>
			<point x="787" y="0" type="line"/>
			<point x="787" y="102" type="line"/>
			<point x="847" y="102" type="line"/>
			<point x="847" y="151" type="line"/>
			<point x="787" y="151" type="line"/>
			<point x="787" y="424" type="line"/>
			<point x="704" y="424" type="line"/>
		</contour>
		<contour>
			<point x="571" y="151" type="line"/>
			<point x="643" y="255" type="line"/>
			<point x="668" y="293"/>
			<point x="693" y="330"/>
			<point x="716" y="369" type="curve"/>
			<point x="720" y="369" type="line"/>
			<point x="717" y="327"/>
			<point x="717" y="290"/>
			<point x="717" y="252" type="curve"/>
			<point x="717" y="151" type="line"/>
		</contour>
	</outline>
</glyph>
<glyph name="onesuperior" format="1">
	<advance width="404"/>
	<outline>
		<contour>
			<point x="81" y="646" type="line"/>
			<point x="103" y="596" type="line"/>
			<point x="191" y="640" type="line"/>
			<point x="191" y="287" type="line"/>
			<point x="261" y="287" type="line"/>
			<point x="261" y="711" type="line"/>
			<point x="211" y="711" type="line"/>
		</contour>
	</outline>
</glyph>
<glyph name="ordfeminine" format="1">
	<advance width="381"/>
	<outline>
		<contour>
			<point x="322" y="592" type="line"/>
			<point x="322" y="667"/>
			<point x="305" y="715"/>
			<point x="192" y="715" type="curve"/>
			<point x="102" y="715"/>
			<point x="75" y="675"/>
			<point x="59" y="630" type="curve"/>
			<point x="126" y="624" type="line"/>
			<point x="131" y="653"/>
			<point x="147" y="680"/>
			<point x="195" y="680" type="curve"/>
			<point x="253" y="680"/>
			<point x="256" y="644"/>
			<point x="256" y="606" type="curve"/>
			<point x="256" y="595" type="line"/>
			<point x="109" y="579"/>
			<point x="43" y="545"/>
			<point x="43" y="471" type="curve"/>
			<point x="43" y="400"/>
			<point x="102" y="383"/>
			<point x="158" y="383" type="curve"/>
			<point x="195" y="383"/>
			<point x="232" y="394"/>
			<point x="257" y="414" type="curve"/>
			<point x="259" y="414" type="line"/>
			<point x="259" y="405"/>
			<point x="261" y="397"/>
			<point x="269" y="390" type="curve"/>
			<point x="336" y="390" type="line"/>
			<point x="336" y="393" type="line"/>
			<point x="326" y="400"/>
			<point x="322" y="409"/>
			<point x="322" y="436" type="curve"/>
		</contour>
		<contour>
			<point x="256" y="454" type="line"/>
			<point x="236" y="434"/>
			<point x="204" y="420"/>
			<point x="171" y="420" type="curve"/>
			<point x="144" y="420"/>
			<point x="111" y="431"/>
			<point x="111" y="474" type="curve"/>
			<point x="111" y="519"/>
			<point x="152" y="550"/>
			<point x="256" y="562" type="curve"/>
		</contour>
	</outline>
</glyph>
<glyph name="otilde" format="1">
	<advance width="596"/>
	<outline>
		<contour>
			<point x="554" y="270" type="line"/>
			<point x="554" y="468"/>
			<point x="449" y="552"/>
			<point x="298" y="552" type="curve"/>
			<point x="147" y="552"/>
			<point x="42" y="468"/>
			<point x="42" y="270" type="curve"/>
			<point x="42" y="93"/>
			<point x="124" y="-12"/>
			<point x="298" y="-12" type="curve"/>
			<point x="469" y="-12"/>
			<point x="554" y="95"/>
			<point x="554" y="269" type="curve"/>
		</contour>
		<contour>
			<point x="298" y="45" type="line"/>
			<point x="198" y="45"/>
			<point x="132" y="117"/>
			<point x="132" y="269" type="curve"/>
			<point x="132" y="430"/>
			<point x="211" y="493"/>
			<point x="298" y="493" type="curve"/>
			<point x="385" y="493"/>
			<point x="464" y="431"/>
			<point x="464" y="269" type="curve"/>
			<point x="464" y="123"/>
			<point x="399" y="45"/>
			<point x="299" y="45" type="curve"/>
		</contour>
		<contour>
			<point x="203" y="608" type="line"/>
			<point x="214" y="630"/>
			<point x="228" y="636"/>
			<point x="246" y="636" type="curve"/>
			<point x="258" y="636"/>
			<point x="273" y="633"/>
			<point x="283" y="627" type="curve"/>
			<point x="299" y="620" type="line"/>
			<point x="315" y="612"/>
			<point x="335" y="607"/>
			<point x="353" y="607" type="curve"/>
			<point x="397" y="607"/>
			<point x="419" y="634"/>
			<point x="432" y="665" type="curve"/>
			<point x="394" y="685" type="line"/>
			<point x="383" y="663"/>
			<point x="369" y="656"/>
			<point x="352" y="656" type="curve"/>
			<point x="339" y="656"/>
			<point x="325" y="660"/>
			<point x="314" y="666" type="curve"/>
			<point x="299" y="673" type="line"/>
			<point x="282" y="681"/>
			<point x="264" y="686"/>
			<point x="245" y="686" type="curve"/>
			<point x="201" y="686"/>
			<point x="178" y="659"/>
			<point x="166" y="628" type="curve"/>
		</contour>
	</outline>
</glyph>
<glyph name="parenright" format="1">
	<advance width="386"/>
	<outline>
		<contour>
			<point x="64" y="-187" type="line"/>
			<point x="122" y="-143"/>
			<point x="171" y="-95"/>
			<point x="211" y="-23" type="curve"/>
			<point x="257" y="65"/>
			<point x="279" y="171"/>
			<point x="278" y="296" type="curve"/>
			<point x="278" y="426"/>
			<point x="253" y="533"/>
			<point x="207" y="618" type="curve"/>
			<point x="168" y="688"/>
			<point x="123" y="734"/>
			<point x="63" y="778" type="curve"/>
			<point x="36" y="738" type="line"/>
			<point x="77" y="695"/>
			<point x="113" y="647"/>
			<point x="140" y="583" type="curve"/>
			<point x="176" y="498"/>
			<point x="188" y="399"/>
			<point x="188" y="296" type="curve"/>
			<point x="188" y="208"/>
			<point x="179" y="106"/>
			<point x="140" y="8" type="curve"/>
			<point x="114" y="-53"/>
			<point x="78" y="-101"/>
			<point x="36" y="-146" type="curve"/>
		</contour>
	</outline>
</glyph>
<glyph name="perthousand" format="1">
	<advance width="1191"/>
	<outline>
		<contour>
			<point x="359" y="541" type="line"/>
			<point x="359" y="654"/>
			<point x="300" y="725"/>
			<point x="200" y="725" type="curve"/>
			<point x="99" y="725"/>
			<point x="40" y="654"/>
			<point x="40" y="541" type="curve"/>
			<point x="40" y="431"/>
			<point x="99" y="358"/>
			<point x="200" y="358" type="curve"/>
			<point x="299" y="358"/>
			<point x="359" y="430"/>
			<point x="359" y="540" type="curve"/>
		</contour>
		<contour>
			<point x="662" y="722" type="line"/>
			<point x="589" y="722" type="line"/>
			<point x="152" y="-10" type="line"/>
			<point x="226" y="-10" type="line"/>
		</contour>
		<contour>
			<point x="200" y="406" type="line"/>
			<point x="141" y="406"/>
			<point x="106" y="461"/>
			<point x="106" y="541" type="curve"/>
			<point x="106" y="621"/>
			<point x="141" y="675"/>
			<point x="200" y="675" type="curve"/>
			<point x="258" y="675"/>
			<point x="293" y="621"/>
			<point x="293" y="541" type="curve"/>
			<point x="293" y="461"/>
			<point x="259" y="406"/>
			<point x="201" y="406" type="curve"/>
		</contour>
		<contour>
			<point x="777" y="170" type="line"/>
			<point x="777" y="283"/>
			<point x="718" y="354"/>
			<point x="618" y="354" type="curve"/>
			<point x="517" y="354"/>
			<point x="458" y="283"/>
			<point x="458" y="170" type="curve"/>
			<point x="458" y="60"/>
			<point x="517" y="-14"/>
			<point x="618" y="-14" type="curve"/>
			<point x="718" y="-14"/>
			<point x="777" y="59"/>
			<point x="777" y="169" type="curve"/>
		</contour>
		<contour>
			<point x="1152" y="169" type="line"/>
			<point x="1152" y="282"/>
			<point x="1093" y="353"/>
			<point x="993" y="353" type="curve"/>
			<point x="892" y="353"/>
			<point x="833" y="282"/>
			<point x="833" y="169" type="curve"/>
			<point x="833" y="59"/>
			<point x="892" y="-15"/>
			<point x="993" y="-15" type="curve"/>
			<point x="1093" y="-15"/>
			<point x="1152" y="58"/>
			<point x="1152" y="168" type="curve"/>
		</contour>
		<contour>
			<point x="618" y="34" type="line"/>
			<point x="559" y="34"/>
			<point x="524" y="88"/>
			<point x="524" y="168" type="curve"/>
			<point x="524" y="249"/>
			<point x="559" y="302"/>
			<point x="618" y="302" type="curve"/>
			<point x="676" y="302"/>
			<point x="711" y="249"/>
			<point x="711" y="168" type="curve"/>
			<point x="711" y="89"/>
			<point x="677" y="34"/>
			<point x="619" y="34" type="curve"/>
		</contour>
		<contour>
			<point x="994" y="34" type="line"/>
			<point x="935" y="34"/>
			<point x="900" y="88"/>
			<point x="900" y="168" type="curve"/>
			<point x="900" y="249"/>
			<point x="935" y="302"/>
			<point x="994" y="302" type="curve"/>
			<point x="1052" y="302"/>
			<point x="1087" y="249"/>
			<point x="1087" y="168" type="curve"/>
			<point x="1087" y="89"/>
			<point x="1053" y="34"/>
			<point x="995" y="34" type="curve"/>
		</contour>
	</outline>
</glyph>
<glyph name="q" format="1">
	<advance width="585"/>
	<outline>
		<contour>
			<point x="513" y="-252" type="line"/>
			<point x="513" y="540" type="line"/>
			<point x="425" y="540" type="line"/>
			<point x="426" y="484" type="line"/>
			<point x="424" y="484" type="line"/>
			<point x="408" y="500"/>
			<point x="385" y="519"/>
			<point x="355" y="533" type="curve"/>
			<point x="329" y="545"/>
			<point x="298" y="552"/>
			<point x="263" y="552" type="curve"/>
			<point x="200" y="552"/>
			<point x="143" y="531"/>
			<point x="101" y="481" type="curve"/>
			<point x="64" y="435"/>
			<point x="42" y="366"/>
			<point x="42" y="270" type="curve"/>
			<point x="42" y="186"/>
			<point x="60" y="110"/>
			<point x="98" y="61" type="curve"/>
			<point x="134" y="16"/>
			<point x="189" y="-12"/>
			<point x="265" y="-12" type="curve"/>
			<point x="289" y="-12"/>
			<point x="319" y="-9"/>
			<point x="353" y="6" type="curve"/>
			<point x="376" y="15"/>
			<point x="402" y="32"/>
			<point x="423" y="51" type="curve"/>
			<point x="425" y="51" type="line"/>
			<point x="425" y="-252" type="line"/>
		</contour>
		<contour>
			<point x="425" y="129" type="line"/>
			<point x="403" y="101"/>
			<point x="380" y="83"/>
			<point x="358" y="71" type="curve"/>
			<point x="336" y="58"/>
			<point x="309" y="50"/>
			<point x="279" y="50" type="curve"/>
			<point x="236" y="50"/>
			<point x="199" y="67"/>
			<point x="170" y="103" type="curve"/>
			<point x="147" y="133"/>
			<point x="132" y="186"/>
			<point x="132" y="270" type="curve"/>
			<point x="132" y="332"/>
			<point x="144" y="396"/>
			<point x="170" y="433" type="curve"/>
			<point x="197" y="471"/>
			<point x="235" y="490"/>
			<point x="280" y="490" type="curve"/>
			<point x="304" y="490"/>
			<point x="329" y="486"/>
			<point x="356" y="472" type="curve"/>
			<point x="380" y="460"/>
			<point x="404" y="439"/>
			<point x="425" y="411" type="curve"/>
		</contour>
	</outline>
</glyph>
<glyph name="quotedblleft" format="1">
	<advance width="376"/>
	<outline>
		<contour>
			<point x="38" y="722" type="line"/>
			<point x="108" y="502" type="line"/>
			<point x="157" y="502" type="line"/>
			<point x="126" y="722" type="line"/>
		</contour>
		<contour>
			<point x="199" y="722" type="line"/>
			<point x="268" y="502" type="line"/>
			<point x="318" y="502" type="line"/>
			<point x="287" y="722" type="line"/>
		</contour>
	</outline>
</glyph>
<glyph name="quoteleft" format="1">
	<advance width="216"/>
	<outline>
		<contour>
			<point x="38" y="722" type="line"/>
			<point x="108" y="502" type="line"/>
			<point x="157" y="502" type="line"/>
			<point x="126" y="722" type="line"/>
		</contour>
	</outline>
</glyph>
<glyph name="quoteright" format="1">
	<advance width="216"/>
	<outline>
		<contour>
			<point x="59" y="502" type="line"/>
			<point x="108" y="502" type="line"/>
			<point x="178" y="722" type="line"/>
			<point x="90" y="722" type="line"/>
		</contour>
	</outline>
</glyph>
<glyph name="quotesingle" format="1">
	<advance width="216"/>
	<outline>
		<contour>
			<point x="67" y="722" type="line"/>
			<point x="84" y="500" type="line"/>
			<point x="132" y="500" type="line"/>
			<point x="150" y="722" type="line"/>
		</contour>
	</outline>
</glyph>
<glyph name="r" format="1">
	<advance width="422"/>
	<outline>
		<contour>
			<point x="158" y="476" type="line"/>
			<point x="159" y="540" type="line"/>
			<point x="72" y="540" type="line"/>
			<point x="72" y="0" type="line"/>
			<point x="159" y="0" type="line"/>
			<point x="159" y="396" type="line"/>
			<point x="183" y="423"/>
			<point x="208" y="446"/>
			<point x="233" y="461" type="curve"/>
			<point x="261" y="478"/>
			<point x="285" y="485"/>
			<point x="307" y="485" type="curve"/>
			<point x="326" y="485"/>
			<point x="341" y="482"/>
			<point x="356" y="475" type="curve"/>
			<point x="367" y="470"/>
			<point x="377" y="463"/>
			<point x="385" y="454" type="curve"/>
			<point x="398" y="525" type="line"/>
			<point x="387" y="533"/>
			<point x="377" y="539"/>
			<point x="364" y="544" type="curve"/>
			<point x="348" y="550"/>
			<point x="331" y="552"/>
			<point x="313" y="552" type="curve"/>
			<point x="282" y="552"/>
			<point x="255" y="543"/>
			<point x="230" y="530" type="curve"/>
			<point x="205" y="516"/>
			<point x="183" y="497"/>
			<point x="161" y="476" type="curve"/>
		</contour>
	</outline>
</glyph>
<glyph name="registered" format="1">
	<advance width="764"/>
	<outline>
		<contour>
			<point x="266" y="255" type="line"/>
			<point x="322" y="255" type="line"/>
			<point x="322" y="408" type="line"/>
			<point x="381" y="408" type="line"/>
			<point x="486" y="255" type="line"/>
			<point x="546" y="255" type="line"/>
			<point x="436" y="415" type="line"/>
			<point x="470" y="424"/>
			<point x="522" y="449"/>
			<point x="522" y="513" type="curve"/>
			<point x="522" y="542"/>
			<point x="511" y="568"/>
			<point x="488" y="586" type="curve"/>
			<point x="465" y="604"/>
			<point x="430" y="615"/>
			<point x="364" y="615" type="curve"/>
			<point x="266" y="615" type="line"/>
		</contour>
		<contour>
			<point x="322" y="576" type="line"/>
			<point x="363" y="576" type="line"/>
			<point x="419" y="576"/>
			<point x="464" y="563"/>
			<point x="464" y="510" type="curve"/>
			<point x="464" y="470"/>
			<point x="434" y="445"/>
			<point x="382" y="445" type="curve"/>
			<point x="322" y="445" type="line"/>
		</contour>
		<contour>
			<point x="382" y="735" type="line"/>
			<point x="215" y="735"/>
			<point x="82" y="601"/>
			<point x="82" y="432" type="curve"/>
			<point x="82" y="263"/>
			<point x="215" y="129"/>
			<point x="382" y="129" type="curve"/>
			<point x="549" y="129"/>
			<point x="682" y="263"/>
			<point x="682" y="432" type="curve"/>
			<point x="682" y="601"/>
			<point x="549" y="735"/>
			<point x="383" y="735" type="curve"/>
		</contour>
		<contour>
			<point x="383" y="695" type="line"/>
			<point x="527" y="695"/>
			<point x="640" y="579"/>
			<point x="640" y="432" type="curve"/>
			<point x="640" y="286"/>
			<point x="527" y="170"/>
			<point x="383" y="170" type="curve"/>
			<point x="240" y="170"/>
			<point x="126" y="286"/>
			<point x="126" y="432" type="curve"/>
			<point x="126" y="579"/>
			<point x="240" y="695"/>
			<point x="382" y="695" type="curve"/>
		</contour>
	</outline>
</glyph>
<glyph name="section" format="1">
	<advance width="567"/>
	<outline>
		<contour>
			<point x="480" y="610" type="line"/>
			<point x="458" y="692"/>
			<point x="387" y="734"/>
			<point x="293" y="734" type="curve"/>
			<point x="232" y="734"/>
			<point x="186" y="721"/>
			<point x="148" y="694" type="curve"/>
			<point x="117" y="670"/>
			<point x="96" y="630"/>
			<point x="96" y="585" type="curve"/>
			<point x="96" y="541"/>
			<point x="112" y="501"/>
			<point x="142" y="473" type="curve"/>
			<point x="108" y="451"/>
			<point x="65" y="418"/>
			<point x="65" y="349" type="curve"/>
			<point x="65" y="266"/>
			<point x="131" y="227"/>
			<point x="228" y="185" type="curve"/>
			<point x="284" y="161"/>
			<point x="339" y="141"/>
			<point x="367" y="117" type="curve"/>
			<point x="391" y="94"/>
			<point x="400" y="73"/>
			<point x="400" y="39" type="curve"/>
			<point x="400" y="10"/>
			<point x="387" y="-20"/>
			<point x="365" y="-40" type="curve"/>
			<point x="342" y="-59"/>
			<point x="312" y="-69"/>
			<point x="276" y="-69" type="curve"/>
			<point x="209" y="-69"/>
			<point x="170" y="-40"/>
			<point x="154" y="13" type="curve"/>
			<point x="74" y="8" type="line"/>
			<point x="90" y="-60"/>
			<point x="161" y="-122"/>
			<point x="275" y="-122" type="curve"/>
			<point x="341" y="-122"/>
			<point x="392" y="-106"/>
			<point x="430" y="-71" type="curve"/>
			<point x="460" y="-43"/>
			<point x="480" y="-3"/>
			<point x="480" y="49" type="curve"/>
			<point x="480" y="97"/>
			<point x="463" y="130"/>
			<point x="442" y="156" type="curve"/>
			<point x="484" y="186"/>
			<point x="510" y="231"/>
			<point x="510" y="283" type="curve"/>
			<point x="510" y="373"/>
			<point x="451" y="412"/>
			<point x="344" y="457" type="curve"/>
			<point x="285" y="479"/>
			<point x="243" y="497"/>
			<point x="221" y="512" type="curve"/>
			<point x="191" y="535"/>
			<point x="177" y="558"/>
			<point x="177" y="592" type="curve"/>
			<point x="177" y="658"/>
			<point x="241" y="681"/>
			<point x="292" y="681" type="curve"/>
			<point x="347" y="681"/>
			<point x="389" y="653"/>
			<point x="402" y="605" type="curve"/>
		</contour>
		<contour>
			<point x="143" y="361" type="line"/>
			<point x="143" y="398"/>
			<point x="159" y="422"/>
			<point x="192" y="442" type="curve"/>
			<point x="318" y="377"/>
			<point x="431" y="371"/>
			<point x="431" y="271" type="curve"/>
			<point x="431" y="236"/>
			<point x="417" y="209"/>
			<point x="394" y="187" type="curve"/>
			<point x="297" y="257"/>
			<point x="143" y="264"/>
			<point x="143" y="360" type="curve"/>
		</contour>
	</outline>
</glyph>
<glyph name="semicolon" format="1">
	<advance width="240"/>
	<outline>
		<contour>
			<point x="79" y="497" type="line"/>
			<point x="79" y="386" type="line"/>
			<point x="163" y="386" type="line"/>
			<point x="163" y="497" type="line"/>
		</contour>
		<contour>
			<point x="51" y="-108" type="line"/>
			<point x="102" y="-108" type="line"/>
			<point x="172" y="112" type="line"/>
			<point x="82" y="112" type="line"/>
		</contour>
	</outline>
</glyph>
<glyph name="six" format="1">
	<advance width="678"/>
	<outline>
		<contour>
			<point x="161" y="348" type="line"/>
			<point x="165" y="566"/>
			<point x="227" y="652"/>
			<point x="352" y="652" type="curve"/>
			<point x="432" y="652"/>
			<point x="474" y="610"/>
			<point x="496" y="558" type="curve"/>
			<point x="585" y="572" type="line"/>
			<point x="544" y="667"/>
			<point x="465" y="715"/>
			<point x="350" y="715" type="curve"/>
			<point x="159" y="715"/>
			<point x="71" y="570"/>
			<point x="71" y="316" type="curve"/>
			<point x="71" y="95"/>
			<point x="156" y="-12"/>
			<point x="352" y="-12" type="curve"/>
			<point x="542" y="-12"/>
			<point x="615" y="105"/>
			<point x="615" y="223" type="curve"/>
			<point x="615" y="364"/>
			<point x="520" y="450"/>
			<point x="355" y="450" type="curve"/>
			<point x="251" y="450"/>
			<point x="187" y="402"/>
			<point x="163" y="348" type="curve"/>
		</contour>
		<contour>
			<point x="165" y="247" type="line"/>
			<point x="165" y="312"/>
			<point x="237" y="386"/>
			<point x="346" y="386" type="curve"/>
			<point x="465" y="386"/>
			<point x="525" y="309"/>
			<point x="525" y="218" type="curve"/>
			<point x="525" y="146"/>
			<point x="475" y="51"/>
			<point x="348" y="51" type="curve"/>
			<point x="204" y="51"/>
			<point x="165" y="166"/>
			<point x="165" y="246" type="curve"/>
		</contour>
	</outline>
</glyph>
<glyph name="six.superior" format="1">
	<advance width="450"/>
	<outline>
		<contour>
			<point x="143" y="593" type="line"/>
			<point x="147" y="680"/>
			<point x="175" y="715"/>
			<point x="232" y="715" type="curve"/>
			<point x="269" y="715"/>
			<point x="287" y="696"/>
			<point x="300" y="673" type="curve"/>
			<point x="371" y="684" type="line"/>
			<point x="343" y="741"/>
			<point x="294" y="764"/>
			<point x="230" y="764" type="curve"/>
			<point x="125" y="764"/>
			<point x="71" y="688"/>
			<point x="71" y="570" type="curve"/>
			<point x="71" y="449"/>
			<point x="125" y="400"/>
			<point x="234" y="400" type="curve"/>
			<point x="341" y="400"/>
			<point x="387" y="459"/>
			<point x="387" y="520" type="curve"/>
			<point x="387" y="589"/>
			<point x="334" y="632"/>
			<point x="239" y="632" type="curve"/>
			<point x="192" y="632"/>
			<point x="159" y="613"/>
			<point x="145" y="593" type="curve"/>
		</contour>
		<contour>
			<point x="144" y="527" type="curve"/>
			<point x="144" y="556"/>
			<point x="187" y="583"/>
			<point x="230" y="583" type="curve"/>
			<point x="289" y="583"/>
			<point x="315" y="552"/>
			<point x="315" y="515" type="curve"/>
			<point x="315" y="484"/>
			<point x="287" y="449"/>
			<point x="231" y="449" type="curve"/>
			<point x="169" y="449"/>
			<point x="144" y="492"/>
		</contour>
	</outline>
</glyph>
<glyph name="sterling" format="1">
	<advance width="652"/>
	<outline>
		<contour>
			<point x="253" y="386" type="line"/>
			<point x="242" y="425"/>
			<point x="226" y="483"/>
			<point x="226" y="529" type="curve"/>
			<point x="226" y="606"/>
			<point x="262" y="653"/>
			<point x="342" y="653" type="curve"/>
			<point x="395" y="653"/>
			<point x="428" y="629"/>
			<point x="449" y="571" type="curve"/>
			<point x="535" y="579" type="line"/>
			<point x="499" y="675"/>
			<point x="433" y="714"/>
			<point x="334" y="714" type="curve"/>
			<point x="201" y="714"/>
			<point x="138" y="636"/>
			<point x="138" y="541" type="curve"/>
			<point x="138" y="481"/>
			<point x="153" y="430"/>
			<point x="164" y="386" type="curve"/>
			<point x="87" y="386" type="line"/>
			<point x="87" y="322" type="line"/>
			<point x="174" y="322" type="line"/>
			<point x="182" y="285"/>
			<point x="187" y="244"/>
			<point x="182" y="201" type="curve"/>
			<point x="177" y="119"/>
			<point x="143" y="76"/>
			<point x="92" y="52" type="curve"/>
			<point x="113" y="-3" type="line"/>
			<point x="148" y="5"/>
			<point x="183" y="8"/>
			<point x="229" y="8" type="curve"/>
			<point x="290" y="8"/>
			<point x="383" y="-8"/>
			<point x="442" y="-8" type="curve"/>
			<point x="522" y="-8"/>
			<point x="564" y="8"/>
			<point x="595" y="31" type="curve"/>
			<point x="575" y="89" type="line"/>
			<point x="548" y="69"/>
			<point x="508" y="58"/>
			<point x="453" y="58" type="curve"/>
			<point x="384" y="58"/>
			<point x="347" y="72"/>
			<point x="279" y="72" type="curve"/>
			<point x="249" y="72"/>
			<point x="225" y="70"/>
			<point x="207" y="65" type="curve"/>
			<point x="205" y="69" type="line"/>
			<point x="243" y="97"/>
			<point x="267" y="141"/>
			<point x="270" y="209" type="curve"/>
			<point x="272" y="250"/>
			<point x="267" y="287"/>
			<point x="260" y="322" type="curve"/>
			<point x="454" y="322" type="line"/>
			<point x="454" y="386" type="line"/>
		</contour>
	</outline>
</glyph>
<glyph name="t" format="1">
	<advance width="460"/>
	<outline>
		<contour>
			<point x="116" y="540" type="line"/>
			<point x="22" y="540" type="line"/>
			<point x="22" y="481" type="line"/>
			<point x="116" y="481" type="line"/>
			<point x="116" y="173" type="line"/>
			<point x="116" y="30"/>
			<point x="198" y="-12"/>
			<point x="300" y="-12" type="curve"/>
			<point x="358" y="-12"/>
			<point x="409" y="9"/>
			<point x="444" y="27" type="curve"/>
			<point x="421" y="84" type="line"/>
			<point x="399" y="70"/>
			<point x="360" y="47"/>
			<point x="315" y="47" type="curve"/>
			<point x="254" y="47"/>
			<point x="204" y="88"/>
			<point x="204" y="194" type="curve"/>
			<point x="204" y="481" type="line"/>
			<point x="391" y="481" type="line"/>
			<point x="391" y="540" type="line"/>
			<point x="204" y="540" type="line"/>
			<point x="204" y="660" type="line"/>
			<point x="116" y="660" type="line"/>
		</contour>
	</outline>
</glyph>
<glyph name="thorn" format="1">
	<advance width="586"/>
	<outline>
		<contour>
			<point x="159" y="50" type="line"/>
			<point x="161" y="50" type="line"/>
			<point x="183" y="30"/>
			<point x="209" y="14"/>
			<point x="232" y="4" type="curve"/>
			<point x="266" y="-10"/>
			<point x="295" y="-12"/>
			<point x="320" y="-12" type="curve"/>
			<point x="392" y="-12"/>
			<point x="446" y="14"/>
			<point x="483" y="58" type="curve"/>
			<point x="521" y="104"/>
			<point x="542" y="175"/>
			<point x="542" y="270" type="curve"/>
			<point x="542" y="369"/>
			<point x="518" y="437"/>
			<point x="482" y="482" type="curve"/>
			<point x="440" y="531"/>
			<point x="386" y="552"/>
			<point x="322" y="552" type="curve"/>
			<point x="284" y="552"/>
			<point x="255" y="545"/>
			<point x="229" y="533" type="curve"/>
			<point x="199" y="519"/>
			<point x="178" y="500"/>
			<point x="161" y="484" type="curve"/>
			<point x="159" y="484" type="line"/>
			<point x="159" y="738" type="line"/>
			<point x="71" y="738" type="line"/>
			<point x="71" y="-252" type="line"/>
			<point x="159" y="-252" type="line"/>
		</contour>
		<contour>
			<point x="159" y="411" type="line"/>
			<point x="180" y="439"/>
			<point x="204" y="460"/>
			<point x="228" y="472" type="curve"/>
			<point x="255" y="486"/>
			<point x="281" y="490"/>
			<point x="305" y="490" type="curve"/>
			<point x="354" y="490"/>
			<point x="390" y="469"/>
			<point x="415" y="435" type="curve"/>
			<point x="439" y="399"/>
			<point x="453" y="341"/>
			<point x="453" y="270" type="curve"/>
			<point x="453" y="184"/>
			<point x="436" y="132"/>
			<point x="414" y="102" type="curve"/>
			<point x="385" y="66"/>
			<point x="346" y="50"/>
			<point x="305" y="50" type="curve"/>
			<point x="275" y="50"/>
			<point x="248" y="58"/>
			<point x="226" y="70" type="curve"/>
			<point x="204" y="83"/>
			<point x="181" y="101"/>
			<point x="159" y="129" type="curve"/>
		</contour>
	</outline>
</glyph>
<glyph name="threesuperior" format="1">
	<advance width="446"/>
	<outline>
		<contour>
			<point x="182" y="487" type="line"/>
			<point x="266" y="486"/>
			<point x="313" y="463"/>
			<point x="313" y="404" type="curve"/>
			<point x="313" y="354"/>
			<point x="283" y="322"/>
			<point x="223" y="322" type="curve"/>
			<point x="167" y="322"/>
			<point x="137" y="343"/>
			<point x="123" y="389" type="curve"/>
			<point x="52" y="383" type="line"/>
			<point x="71" y="312"/>
			<point x="122" y="278"/>
			<point x="223" y="278" type="curve"/>
			<point x="339" y="278"/>
			<point x="385" y="329"/>
			<point x="385" y="399" type="curve"/>
			<point x="385" y="483"/>
			<point x="316" y="509"/>
			<point x="252" y="511" type="curve"/>
			<point x="252" y="513" type="line"/>
			<point x="324" y="521"/>
			<point x="369" y="550"/>
			<point x="369" y="615" type="curve"/>
			<point x="369" y="664"/>
			<point x="343" y="715"/>
			<point x="221" y="715" type="curve"/>
			<point x="122" y="715"/>
			<point x="75" y="674"/>
			<point x="63" y="618" type="curve"/>
			<point x="134" y="613" type="line"/>
			<point x="144" y="648"/>
			<point x="169" y="672"/>
			<point x="220" y="672" type="curve"/>
			<point x="287" y="672"/>
			<point x="297" y="635"/>
			<point x="297" y="607" type="curve"/>
			<point x="297" y="557"/>
			<point x="251" y="533"/>
			<point x="182" y="529" type="curve"/>
		</contour>
	</outline>
</glyph>
<glyph name="tilde" format="1">
	<advance width="406"/>
	<outline>
		<contour>
			<point x="108" y="608" type="line"/>
			<point x="119" y="630"/>
			<point x="133" y="636"/>
			<point x="151" y="636" type="curve"/>
			<point x="163" y="636"/>
			<point x="178" y="633"/>
			<point x="188" y="627" type="curve"/>
			<point x="204" y="620" type="line"/>
			<point x="220" y="612"/>
			<point x="240" y="607"/>
			<point x="258" y="607" type="curve"/>
			<point x="302" y="607"/>
			<point x="324" y="634"/>
			<point x="337" y="665" type="curve"/>
			<point x="299" y="685" type="line"/>
			<point x="288" y="663"/>
			<point x="274" y="656"/>
			<point x="257" y="656" type="curve"/>
			<point x="244" y="656"/>
			<point x="230" y="660"/>
			<point x="219" y="666" type="curve"/>
			<point x="204" y="673" type="line"/>
			<point x="187" y="681"/>
			<point x="169" y="686"/>
			<point x="150" y="686" type="curve"/>
			<point x="106" y="686"/>
			<point x="83" y="659"/>
			<point x="71" y="628" type="curve"/>
		</contour>
	</outline>
</glyph>
<glyph name="tildebelowcmb" format="1">
	<outline>
		<contour>
			<point x="-95" y="-214" type="line"/>
			<point x="-85" y="-192"/>
			<point x="-70" y="-185"/>
			<point x="-53" y="-185" type="curve"/>
			<point x="-40" y="-185"/>
			<point x="-26" y="-188"/>
			<point x="-15" y="-194" type="curve"/>
			<point x="0" y="-201" type="line"/>
			<point x="17" y="-209"/>
			<point x="37" y="-214"/>
			<point x="54" y="-214" type="curve"/>
			<point x="98" y="-214"/>
			<point x="120" y="-187"/>
			<point x="133" y="-156" type="curve"/>
			<point x="96" y="-136" type="line"/>
			<point x="85" y="-158"/>
			<point x="71" y="-165"/>
			<point x="53" y="-165" type="curve"/>
			<point x="40" y="-165"/>
			<point x="26" y="-161"/>
			<point x="16" y="-156" type="curve"/>
			<point x="0" y="-148" type="line"/>
			<point x="-16" y="-141"/>
			<point x="-35" y="-136"/>
			<point x="-53" y="-136" type="curve"/>
			<point x="-97" y="-136"/>
			<point x="-120" y="-162"/>
			<point x="-133" y="-194" type="curve"/>
		</contour>
	</outline>
</glyph>
<glyph name="tildecmb" format="1">
	<outline>
		<contour>
			<point x="-95" y="608" type="line"/>
			<point x="-85" y="630"/>
			<point x="-70" y="636"/>
			<point x="-53" y="636" type="curve"/>
			<point x="-40" y="636"/>
			<point x="-26" y="633"/>
			<point x="-15" y="627" type="curve"/>
			<point x="0" y="620" type="line"/>
			<point x="17" y="612"/>
			<point x="37" y="607"/>
			<point x="54" y="607" type="curve"/>
			<point x="98" y="607"/>
			<point x="120" y="634"/>
			<point x="133" y="665" type="curve"/>
			<point x="96" y="685" type="line"/>
			<point x="85" y="663"/>
			<point x="71" y="656"/>
			<point x="53" y="656" type="curve"/>
			<point x="40" y="656"/>
			<point x="26" y="660"/>
			<point x="16" y="666" type="curve"/>
			<point x="0" y="673" type="line"/>
			<point x="-16" y="681"/>
			<point x="-35" y="686"/>
			<point x="-53" y="686" type="curve"/>
			<point x="-97" y="686"/>
			<point x="-120" y="659"/>
			<point x="-133" y="628" type="curve"/>
		</contour>
	</outline>
</glyph>
<glyph name="trademark" format="1">
	<advance width="924"/>
	<outline>
		<contour>
			<point x="322" y="719" type="line"/>
			<point x="27" y="719" type="line"/>
			<point x="27" y="677" type="line"/>
			<point x="145" y="677" type="line"/>
			<point x="145" y="359" type="line"/>
			<point x="204" y="359" type="line"/>
			<point x="204" y="677" type="line"/>
			<point x="322" y="677" type="line"/>
		</contour>
		<contour>
			<point x="588" y="414" type="line"/>
			<point x="568" y="469"/>
			<point x="546" y="520"/>
			<point x="523" y="570" type="curve"/>
			<point x="457" y="719" type="line"/>
			<point x="363" y="719" type="line"/>
			<point x="363" y="359" type="line"/>
			<point x="418" y="359" type="line"/>
			<point x="418" y="516" type="line"/>
			<point x="418" y="569"/>
			<point x="418" y="621"/>
			<point x="417" y="680" type="curve"/>
			<point x="419" y="680" type="line"/>
			<point x="442" y="622"/>
			<point x="465" y="569"/>
			<point x="488" y="516" type="curve"/>
			<point x="557" y="359" type="line"/>
			<point x="619" y="359" type="line"/>
			<point x="688" y="515" type="line"/>
			<point x="711" y="568"/>
			<point x="735" y="621"/>
			<point x="758" y="680" type="curve"/>
			<point x="761" y="680" type="line"/>
			<point x="760" y="622"/>
			<point x="759" y="569"/>
			<point x="759" y="516" type="curve"/>
			<point x="759" y="359" type="line"/>
			<point x="816" y="359" type="line"/>
			<point x="816" y="719" type="line"/>
			<point x="723" y="719" type="line"/>
			<point x="656" y="570" type="line"/>
			<point x="633" y="521"/>
			<point x="611" y="470"/>
			<point x="590" y="414" type="curve"/>
		</contour>
	</outline>
</glyph>
<glyph name="uacute" format="1">
	<advance width="595"/>
	<outline>
		<contour>
			<point x="67" y="540" type="line"/>
			<point x="67" y="169" type="line"/>
			<point x="67" y="105"/>
			<point x="80" y="63"/>
			<point x="105" y="33" type="curve"/>
			<point x="131" y="2"/>
			<point x="176" y="-12"/>
			<point x="229" y="-12" type="curve"/>
			<point x="271" y="-12"/>
			<point x="311" y="-1"/>
			<point x="347" y="17" type="curve"/>
			<point x="378" y="33"/>
			<point x="405" y="54"/>
			<point x="433" y="76" type="curve"/>
			<point x="437" y="76" type="line"/>
			<point x="436" y="0" type="line"/>
			<point x="524" y="0" type="line"/>
			<point x="524" y="540" type="line"/>
			<point x="436" y="540" type="line"/>
			<point x="436" y="146" type="line"/>
			<point x="408" y="116"/>
			<point x="375" y="94"/>
			<point x="347" y="79" type="curve"/>
			<point x="317" y="64"/>
			<point x="285" y="56"/>
			<point x="256" y="56" type="curve"/>
			<point x="217" y="56"/>
			<point x="192" y="70"/>
			<point x="178" y="88" type="curve"/>
			<point x="158" y="112"/>
			<point x="155" y="151"/>
			<point x="155" y="194" type="curve"/>
			<point x="155" y="540" type="line"/>
		</contour>
		<contour>
			<point x="465" y="693" type="line"/>
			<point x="362" y="693" type="line"/>
			<point x="264" y="587" type="line"/>
			<point x="326" y="587" type="line"/>
		</contour>
	</outline>
</glyph>
<glyph name="v" format="1">
	<advance width="527"/>
	<outline>
		<contour>
			<point x="261" y="57" type="line"/>
			<point x="236" y="147"/>
			<point x="212" y="228"/>
			<point x="187" y="307" type="curve"/>
			<point x="113" y="540" type="line"/>
			<point x="16" y="540" type="line"/>
			<point x="211" y="0" type="line"/>
			<point x="315" y="0" type="line"/>
			<point x="510" y="540" type="line"/>
			<point x="414" y="540" type="line"/>
			<point x="340" y="308" type="line"/>
			<point x="314" y="212"/>
			<point x="291" y="148"/>
			<point x="265" y="57" type="curve"/>
		</contour>
	</outline>
</glyph>
<glyph name="w" format="1">
	<advance width="884"/>
	<outline>
		<contour>
			<point x="443" y="471" type="line"/>
			<point x="465" y="387"/>
			<point x="487" y="322"/>
			<point x="509" y="238" type="curve"/>
			<point x="579" y="0" type="line"/>
			<point x="688" y="0" type="line"/>
			<point x="867" y="540" type="line"/>
			<point x="778" y="540" type="line"/>
			<point x="706" y="303" type="line"/>
			<point x="683" y="227"/>
			<point x="660" y="150"/>
			<point x="638" y="62" type="curve"/>
			<point x="633" y="62" type="line"/>
			<point x="611" y="145"/>
			<point x="589" y="225"/>
			<point x="566" y="302" type="curve"/>
			<point x="495" y="540" type="line"/>
			<point x="388" y="540" type="line"/>
			<point x="317" y="302" type="line"/>
			<point x="294" y="225"/>
			<point x="273" y="149"/>
			<point x="250" y="62" type="curve"/>
			<point x="246" y="62" type="line"/>
			<point x="224" y="149"/>
			<point x="200" y="231"/>
			<point x="178" y="300" type="curve"/>
			<point x="106" y="540" type="line"/>
			<point x="17" y="540" type="line"/>
			<point x="196" y="0" type="line"/>
			<point x="304" y="0" type="line"/>
			<point x="374" y="236" type="line"/>
			<point x="397" y="318"/>
			<point x="418" y="385"/>
			<point x="439" y="471" type="curve"/>
		</contour>
	</outline>
</glyph>
<glyph name="yen" format="1">
	<advance width="634"/>
	<outline>
		<contour>
			<point x="363" y="263" type="line"/>
			<point x="547" y="263" type="line"/>
			<point x="547" y="308" type="line"/>
			<point x="363" y="308" type="line"/>
			<point x="363" y="324" type="line"/>
			<point x="572" y="702" type="line"/>
			<point x="467" y="702" type="line"/>
			<point x="393" y="534" type="line"/>
			<point x="369" y="476"/>
			<point x="344" y="418"/>
			<point x="320" y="355" type="curve"/>
			<point x="318" y="355" type="line"/>
			<point x="294" y="417"/>
			<point x="268" y="475"/>
			<point x="243" y="533" type="curve"/>
			<point x="168" y="702" type="line"/>
			<point x="61" y="702" type="line"/>
			<point x="271" y="324" type="line"/>
			<point x="271" y="308" type="line"/>
			<point x="85" y="308" type="line"/>
			<point x="85" y="263" type="line"/>
			<point x="271" y="263" type="line"/>
			<point x="271" y="173" type="line"/>
			<point x="85" y="173" type="line"/>
			<point x="85" y="127" type="line"/>
			<point x="271" y="127" type="line"/>
			<point x="271" y="0" type="line"/>
			<point x="363" y="0" type="line"/>
			<point x="363" y="127" type="line"/>
			<point x="547" y="127" type="line"/>
			<point x="547" y="173" type="line"/>
			<point x="363" y="173" type="line"/>
		</contour>
	</outline>
</glyph>
<glyph name="z" format="1">
	<advance width="452"/>
	<outline>
		<contour>
			<point x="411" y="540" type="line"/>
			<point x="51" y="540" type="line"/>
			<point x="51" y="481" type="line"/>
			<point x="303" y="481" type="line"/>
			<point x="38" y="48" type="line"/>
			<point x="38" y="0" type="line"/>
			<point x="426" y="0" type="line"/>
			<point x="426" y="59" type="line"/>
			<point x="148" y="59" type="line"/>
			<point x="411" y="492" type="line"/>
		</contour>
	</outline>
</glyph>
<glyph name="zcaron" format="1">
	<advance width="452"/>
	<outline>
		<contour>
			<point x="411" y="540" type="line"/>
			<point x="51" y="540" type="line"/>
			<point x="51" y="481" type="line"/>
			<point x="303" y="481" type="line"/>
			<point x="38" y="48" type="line"/>
			<point x="38" y="0" type="line"/>
			<point x="426" y="0" type="line"/>
			<point x="426" y="59" type="line"/>
			<point x="148" y="59" type="line"/>
			<point x="411" y="492" type="line"/>
		</contour>
		<contour>
			<point x="227" y="636" type="line"/>
			<point x="225" y="636" type="line"/>
			<point x="161" y="690" type="line"/>
			<point x="93" y="690" type="line"/>
			<point x="198" y="591" type="line"/>
			<point x="254" y="591" type="line"/>
			<point x="360" y="690" type="line"/>
			<point x="291" y="690" type="line"/>
		</contour>
	</outline>
</glyph>
<glyph name="zero.superior" format="1">
	<advance width="437"/>
	<outline>
		<contour>
			<point x="45" y="582" type="line"/>
			<point x="45" y="461"/>
			<point x="107" y="399"/>
			<point x="218" y="399" type="curve"/>
			<point x="336" y="399"/>
			<point x="392" y="466"/>
			<point x="392" y="582" type="curve"/>
			<point x="392" y="698"/>
			<point x="333" y="764"/>
			<point x="218" y="764" type="curve"/>
			<point x="105" y="764"/>
			<point x="45" y="699"/>
			<point x="45" y="583" type="curve"/>
		</contour>
		<contour>
			<point x="218" y="715" type="curve"/>
			<point x="271" y="715"/>
			<point x="320" y="675"/>
			<point x="320" y="582" type="curve"/>
			<point x="320" y="488"/>
			<point x="280" y="449"/>
			<point x="218" y="449" type="curve"/>
			<point x="158" y="449"/>
			<point x="117" y="487"/>
			<point x="117" y="582" type="curve"/>
			<point x="117" y="676"/>
			<point x="166" y="715"/>
		</contour>
	</outline>
</glyph>
